<svg width="96" height="18" viewBox="0 0 96 18" fill="none" xmlns="http://www.w3.org/2000/svg">
<path d="M0.0280915 0.0754181C3.67365 0.0833261 7.3113 0.0596032 10.9569 0.091235C8.89289 1.0481 7.08988 2.55851 5.80089 4.43269C3.87926 4.4406 1.95763 4.42478 0.0359993 4.4406C-0.0351722 3.30186 0.0280912 2.15521 0.00436741 1.00856C-0.0114485 0.700147 0.0201835 0.383828 0.0280915 0.0754181Z" fill="#FF6D00"/>
<path d="M8.84535 2.19447C10.0869 1.21389 11.5261 0.486355 13.0524 0.0593262C13.1156 0.937107 13.0524 1.8228 13.0761 2.70058C13.0682 3.28576 13.0998 3.87095 13.0524 4.45614C10.5297 5.57116 8.77418 8.2045 8.71882 10.9565C8.71091 13.1153 8.71882 15.2821 8.71882 17.441C7.25585 17.4568 5.79288 17.4647 4.32992 17.4331C4.32201 15.4245 4.36155 13.4079 4.34573 11.3993C4.32992 7.85655 6.06175 4.37706 8.84535 2.19447Z" fill="#EB0F29"/>
<path d="M19.0861 0.0753199C22.3521 0.067412 25.6181 0.0753199 28.8761 0.0753199C28.8919 1.26151 28.8919 2.4477 28.8761 3.63389C27.2076 3.62598 25.5469 3.63389 23.8783 3.63389C23.8783 4.70937 23.8783 5.79276 23.8783 6.86824C25.5469 6.87615 27.2076 6.86824 28.8761 6.87615C28.8999 7.97535 28.884 9.06664 28.884 10.1658C27.2155 10.1817 25.5469 10.1658 23.8783 10.1738C23.8783 11.4628 23.8783 12.7438 23.8783 14.0328C25.5469 14.0328 27.2076 14.0328 28.8761 14.0328C28.8999 15.1716 28.884 16.3103 28.884 17.4491C25.6181 17.4649 22.3442 17.4649 19.0782 17.4491C19.094 11.6525 19.0861 5.87184 19.0861 0.0753199ZM30.5368 0.0753199C32.1342 0.0753199 33.7316 0.0753199 35.3369 0.0753199C35.3369 4.61448 35.3369 9.15363 35.3369 13.6928C37.0055 13.6928 38.6662 13.6928 40.3347 13.6928C40.3347 14.9422 40.3347 16.1917 40.3347 17.4412C37.0688 17.457 33.8028 17.457 30.5368 17.4412C30.5368 11.6604 30.5289 5.86393 30.5368 0.0753199ZM41.9796 0.0753199C45.2456 0.0753199 48.5115 0.0753199 51.7775 0.0753199C51.7775 1.26151 51.7775 2.4477 51.7775 3.62598C50.1089 3.62598 48.4483 3.62598 46.7797 3.62598C46.7718 4.70146 46.7797 5.78485 46.7797 6.86824C48.4483 6.88405 50.1169 6.85242 51.7775 6.88405C51.7696 7.97535 51.7775 9.06664 51.7775 10.1579C50.1089 10.1738 48.4404 10.1579 46.7797 10.1658C46.7797 11.4548 46.7797 12.7359 46.7797 14.0249C48.4483 14.0249 50.1089 14.0249 51.7775 14.0249C51.7775 15.1637 51.7775 16.3024 51.7775 17.4412C48.5115 17.457 45.2456 17.4491 41.9796 17.4491C41.9796 11.6604 41.9717 5.87184 41.9796 0.0753199ZM53.1535 0.0753199C54.7588 0.0753199 56.3641 0.0753199 57.9773 0.0753199C58.5151 3.30176 59.0607 6.5282 59.5906 9.75464C59.8199 10.8855 59.8911 12.0321 59.9622 13.1788C60.0018 13.1709 60.0809 13.155 60.1204 13.1471C60.1916 12.1428 60.2153 11.1227 60.4209 10.1342C60.9824 6.78125 61.5438 3.43619 62.0974 0.0832283C63.7027 0.0753204 65.3159 0.0832283 66.9212 0.0832283C65.6006 5.87975 64.2958 11.6763 62.9593 17.4649C61.0061 17.4491 59.0528 17.4728 57.1075 17.457C55.7948 11.6525 54.4583 5.87184 53.1535 0.0753199ZM68.3051 0.0753199C71.5711 0.0753199 74.8371 0.0753199 78.103 0.0753199C78.103 1.26151 78.103 2.4477 78.103 3.63389C76.4345 3.63389 74.758 3.63389 73.0894 3.63389C73.0815 4.70937 73.0894 5.79276 73.0894 6.87615C74.7659 6.87615 76.4345 6.87615 78.111 6.87615C78.1189 7.97535 78.111 9.06664 78.111 10.1658C76.4345 10.1817 74.7659 10.1658 73.0894 10.1738C73.0973 11.4628 73.0894 12.7517 73.0973 14.0407C74.7659 14.0407 76.4424 14.0407 78.111 14.0407C78.1189 15.1795 78.111 16.3182 78.1189 17.457C74.8529 17.4728 71.5869 17.4728 68.3209 17.457C68.3051 11.6525 68.3051 5.86393 68.3051 0.0753199ZM79.7005 0.0753199C81.4639 0.0753199 83.2274 0.067412 84.9909 0.0753199C84.983 0.352098 85.0067 0.628876 84.975 0.913562C84.7378 1.39595 84.4136 1.83088 84.1763 2.31327C84.2475 2.35281 84.3266 2.39235 84.4057 2.43979C84.6508 2.11557 84.8485 1.7518 85.1332 1.44339C85.9477 0.747496 86.9046 0.146491 87.9959 0.0278718C89.1425 -0.0749314 90.3762 0.0911357 91.3251 0.787034C91.9973 1.26151 92.448 1.98904 92.7169 2.75611C93.057 3.72879 93.1281 4.78054 93.1044 5.80857C93.1044 9.68346 93.1044 13.5663 93.1044 17.4412C91.4991 17.457 89.9017 17.457 88.3043 17.4412C88.3122 13.416 88.3043 9.39087 88.3122 5.35782C88.3517 4.90707 88.1382 4.43259 87.7349 4.20326C86.7306 3.55481 85.2597 4.10046 84.7694 5.15222C84.5006 5.71368 84.4927 6.35422 84.5085 6.96313C84.5085 10.4584 84.5085 13.9538 84.5085 17.4412C82.9032 17.457 81.3058 17.457 79.7084 17.4412C79.7005 11.6604 79.7005 5.87184 79.7005 0.0753199ZM13.0444 6.88405C14.5153 6.86824 15.9783 6.86824 17.4492 6.88405C17.4492 7.96744 17.4492 9.05874 17.4492 10.1421C15.9862 10.1421 14.5153 10.1421 13.0523 10.1421C13.0365 9.05874 13.0523 7.96744 13.0444 6.88405ZM94.512 15.3772C95.1526 15.0925 95.9671 15.5907 95.9908 16.2945C96.0778 16.9034 95.5401 17.5202 94.9153 17.4807C94.2194 17.5202 93.6738 16.769 93.8794 16.1126C93.9585 15.7884 94.2115 15.5116 94.512 15.3772ZM94.5832 15.6144C94.172 15.7805 93.9822 16.3103 94.1562 16.7136C94.2827 17.0853 94.7097 17.3225 95.0893 17.2355C95.5559 17.1327 95.8564 16.5792 95.6982 16.1363C95.5796 15.6777 95.0181 15.393 94.5832 15.6144ZM94.5437 15.7884C94.8046 15.8042 95.1684 15.7014 95.3265 15.9703C95.461 16.1759 95.3107 16.4131 95.1447 16.5476C95.2237 16.6899 95.3028 16.8401 95.3819 16.9825C95.3107 16.9825 95.1684 16.9904 95.1051 16.9904C95.0181 16.8243 94.9311 16.6662 94.7967 16.5317C94.7888 16.682 94.7809 16.8322 94.7809 16.9825C94.7176 16.9825 94.599 16.9825 94.5357 16.9825C94.5437 16.5871 94.5437 16.1917 94.5437 15.7884ZM94.7888 15.994C94.7888 16.1126 94.7888 16.2391 94.7888 16.3578C94.9311 16.3261 95.1605 16.3182 95.1288 16.1126C95.0577 15.9861 94.9074 16.0098 94.7888 15.994Z" fill="#147351"/>
</svg>
