<svg width="27" height="16" viewBox="0 0 27 16" fill="none" xmlns="http://www.w3.org/2000/svg">
<path fill-rule="evenodd" clip-rule="evenodd" d="M17.6638 13.4057C17.5217 13.5428 17.4077 13.7082 17.3286 13.892C17.2496 14.0758 17.2071 14.2742 17.2036 14.4753C17.2002 14.6765 17.2359 14.8763 17.3087 15.0629C17.3814 15.2494 17.4897 15.4189 17.6271 15.5612C17.7644 15.7034 17.928 15.8156 18.1081 15.891C18.2882 15.9663 18.4812 16.0033 18.6754 15.9998C18.8696 15.9962 19.0611 15.9522 19.2385 15.8703C19.416 15.7884 19.5757 15.6703 19.7081 15.5231L25.9779 9.03085L27 7.97211L25.9779 6.91336L19.71 0.421066C19.4373 0.148016 19.072 -0.00317651 18.6928 5.06185e-05C18.3135 0.00327775 17.9507 0.160667 17.6824 0.43832C17.414 0.715973 17.2618 1.09167 17.2583 1.4845C17.2548 1.87733 17.4004 2.25586 17.6638 2.53855L21.4631 6.47389L1.44643 6.47389C1.06281 6.47389 0.694908 6.63173 0.423649 6.9127C0.152391 7.19368 0 7.57475 0 7.97211C0 8.36946 0.152391 8.75054 0.423649 9.03151C0.694908 9.31248 1.06281 9.47033 1.44643 9.47033L21.4631 9.47033L17.6638 13.4057Z" fill="white"/>
</svg>
