<svg width="98" height="19" viewBox="0 0 98 19" fill="none" xmlns="http://www.w3.org/2000/svg">
<path fill-rule="evenodd" clip-rule="evenodd" d="M13.5974 4.18836L11.885 14.7125H14.6247L16.3374 4.18836H13.5974ZM9.57978 4.18836L6.96757 11.4268L6.65858 9.86808L6.6588 9.86859L6.59071 9.51924C6.27457 8.83791 5.54237 7.54298 4.15979 6.43786C3.75103 6.1112 3.33899 5.83243 2.94067 5.5943L5.31475 14.7125H8.16939L12.5286 4.18836H9.57978ZM20.2727 7.11006C20.2727 5.92022 22.941 6.07311 24.1135 6.71919L24.5045 4.45889C24.5045 4.45889 23.2978 4 22.0401 4C20.6804 4 17.4516 4.59463 17.4516 7.48394C17.4516 10.2031 21.2412 10.2369 21.2412 11.6645C21.2412 13.0921 17.8423 12.837 16.7206 11.9364L16.3129 14.299C16.3129 14.299 17.5363 14.8936 19.4059 14.8936C21.2754 14.8936 24.0964 13.9251 24.0964 11.2907C24.0964 8.55446 20.2727 8.29962 20.2727 7.11006ZM31.4531 4.18836H29.2502C28.233 4.18836 27.9853 4.97266 27.9853 4.97266L23.8994 14.7125H26.7551L27.3264 13.1494H30.8095L31.1309 14.7125H33.6466L31.4531 4.18836ZM28.116 10.9897L29.5557 7.05132L30.3656 10.9897H28.116Z" fill="#005BAC"/>
<path fill-rule="evenodd" clip-rule="evenodd" d="M5.7743 5.17907C5.7743 5.17907 5.66089 4.22925 4.45017 4.22925H0.051523L0 4.40775C0 4.40775 2.11434 4.83877 4.14279 6.45357C6.08125 7.99692 6.71361 9.92079 6.71361 9.92079L5.7743 5.17907Z" fill="#F6AC1D"/>
<path fill-rule="evenodd" clip-rule="evenodd" d="M91.8474 11.2521H93.6482C93.7041 11.2521 93.8111 11.2432 93.8625 11.2316C94.2089 11.1586 94.4959 10.8537 94.4959 10.4386C94.4959 10.0256 94.2089 9.72001 93.8625 9.64561C93.8111 9.63473 93.7041 9.62524 93.6482 9.62524H91.8474V11.2521Z" fill="url(#paint0_linear_652_431)"/>
<path fill-rule="evenodd" clip-rule="evenodd" d="M93.4371 0C91.7193 0 90.3262 1.38076 90.3262 3.08376V6.28587H94.7283C94.8305 6.28587 94.9553 6.293 95.0332 6.29779C96.0294 6.34704 96.764 6.85385 96.764 7.73459C96.764 8.42667 96.2619 9.01745 95.3476 9.15007V9.18575C96.3576 9.25545 97.1302 9.80577 97.1302 10.6739C97.1302 11.6115 96.2818 12.2148 95.1511 12.2148H90.3262V18.5011H94.8887C96.6076 18.5011 98 17.1202 98 15.4176V0H93.4371Z" fill="url(#paint1_linear_652_431)"/>
<path fill-rule="evenodd" clip-rule="evenodd" d="M94.2833 7.9576C94.2833 7.55008 93.9953 7.27745 93.6571 7.22001C93.6256 7.21566 93.5391 7.20679 93.4795 7.20679H91.8474V8.70816H93.4795C93.5391 8.70816 93.6256 8.69972 93.6571 8.69423C93.9953 8.63784 94.2833 8.36451 94.2833 7.9576Z" fill="url(#paint2_linear_652_431)"/>
<path fill-rule="evenodd" clip-rule="evenodd" d="M76.2244 0C74.5063 0 73.1135 1.38076 73.1135 3.08376V10.699C73.9864 11.1179 74.8873 11.3909 75.8043 11.3909C76.8798 11.3909 77.4714 10.7399 77.4714 9.86356V6.28587H80.1467V9.86356C80.1467 11.263 79.2797 12.3858 76.3067 12.3858C74.5173 12.3858 73.1135 12.0027 73.1135 12.0027V18.5011H77.6761C79.3942 18.5011 80.7866 17.1202 80.7866 15.4176V0H76.2244Z" fill="url(#paint3_linear_652_431)"/>
<path fill-rule="evenodd" clip-rule="evenodd" d="M84.8309 0C83.1134 0 81.72 1.38076 81.72 3.08376V7.12074C82.5084 6.45007 83.8706 6.03124 86.0854 6.13019C87.2719 6.18248 88.5285 6.49767 88.5285 6.49767V7.8029C87.8992 7.4878 87.1443 7.19384 86.1724 7.12144C84.4916 6.99561 83.4807 7.80969 83.4807 9.25101C83.4807 10.6916 84.4916 11.5054 86.1724 11.3796C87.1443 11.3062 87.9091 11.0061 88.5285 10.699V12.0034C88.5285 12.0034 87.2719 12.3185 86.0854 12.3715C83.8706 12.4704 82.5084 12.052 81.72 11.3816V18.5011H86.2825C88.0007 18.5011 89.3934 17.1202 89.3934 15.4176V0H84.8309Z" fill="url(#paint4_linear_652_431)"/>
<path fill-rule="evenodd" clip-rule="evenodd" d="M53.3727 15.5736C54.8469 16.9237 56.81 17.7411 58.9556 17.7411C63.5532 17.7411 67.2752 13.99 67.2752 9.37043C67.2752 4.74357 63.5459 0.999756 58.9556 0.999756C56.8027 0.999756 54.8469 1.81712 53.3727 3.16723C51.6942 4.69978 50.636 6.91104 50.636 9.37043C50.636 11.8298 51.6942 14.0484 53.3727 15.5736Z" fill="#FCB131"/>
<path fill-rule="evenodd" clip-rule="evenodd" d="M66.1733 14.0413C66.1733 13.888 66.2974 13.7712 66.4434 13.7712C66.5893 13.7712 66.7134 13.8953 66.7134 14.0413C66.7134 14.1872 66.5966 14.3113 66.4434 14.3113C66.2901 14.3113 66.1733 14.1872 66.1733 14.0413ZM66.4434 14.2456C66.5601 14.2456 66.6477 14.1507 66.6477 14.0413C66.6477 13.9245 66.5528 13.8369 66.4434 13.8369C66.3339 13.8369 66.239 13.9318 66.239 14.0413C66.239 14.1507 66.3266 14.2456 66.4434 14.2456ZM66.4069 14.158H66.3485V13.9172H66.4507C66.4726 13.9172 66.4944 13.9172 66.509 13.9318C66.5309 13.9464 66.5382 13.9683 66.5382 13.9902C66.5382 14.0194 66.5236 14.0413 66.4944 14.0486L66.5382 14.1507H66.4799L66.4434 14.0559H66.3996V14.158V14.0267H66.4288C66.4434 14.0267 66.4507 14.0267 66.4653 14.0194C66.4726 14.0121 66.4799 14.0048 66.4799 13.9902C66.4799 13.9829 66.4726 13.9683 66.4653 13.9683C66.458 13.961 66.4434 13.961 66.4288 13.961H66.3996V14.0194V14.158H66.4069Z" fill="#FCB131"/>
<path fill-rule="evenodd" clip-rule="evenodd" d="M56.0656 8.48011C56.0365 8.1809 55.9854 7.88168 55.927 7.59707H50.8331C50.8987 7.29785 50.979 6.99864 51.0739 6.71402H55.6862C55.584 6.40751 55.4672 6.1156 55.3359 5.82368H51.4315C51.5775 5.51717 51.738 5.22526 51.9132 4.94064H54.8615C54.6718 4.63413 54.4601 4.33491 54.2266 4.05759H52.5481C52.8035 3.74379 53.0881 3.44457 53.3873 3.17455C51.9132 1.82444 49.95 1.00708 47.8044 1.00708C43.2068 1.00708 39.4849 4.75819 39.4849 9.37775C39.4849 14.0046 43.2141 17.7484 47.8044 17.7484C49.9573 17.7484 51.9132 16.9311 53.3873 15.5809C53.6865 15.3036 53.9712 15.0117 54.2266 14.6979H52.5481C52.3218 14.4206 52.1102 14.1214 51.9132 13.8149H54.8615C55.0366 13.5302 55.1972 13.231 55.3432 12.9318H51.4388C51.3074 12.6472 51.1834 12.348 51.0812 12.0488H55.6935C55.7883 11.7569 55.8686 11.4649 55.9343 11.1657C56 10.8738 56.0438 10.5819 56.0729 10.2754C56.1021 9.98347 56.1167 9.69156 56.1167 9.39234C56.1094 9.07124 56.0948 8.77203 56.0656 8.48011Z" fill="#ED1B2E"/>
<path fill-rule="evenodd" clip-rule="evenodd" d="M66.1733 11.3118C66.1733 11.1658 66.2974 11.0417 66.4434 11.0417C66.5893 11.0417 66.7134 11.1658 66.7134 11.3118C66.7134 11.4577 66.5966 11.5818 66.4434 11.5818C66.2901 11.5818 66.1733 11.465 66.1733 11.3118ZM66.4434 11.5161C66.5601 11.5161 66.6477 11.4212 66.6477 11.3118C66.6477 11.195 66.5528 11.1074 66.4434 11.1074C66.3339 11.1074 66.239 11.2023 66.239 11.3118C66.239 11.4285 66.3266 11.5161 66.4434 11.5161ZM66.4069 11.4285H66.3485V11.195H66.4507C66.4726 11.195 66.4944 11.195 66.509 11.2096C66.5309 11.2242 66.5382 11.2461 66.5382 11.268C66.5382 11.2972 66.5236 11.3191 66.4944 11.3264L66.5382 11.4285H66.4799L66.4434 11.3337H66.3996V11.4285V11.2972H66.4288C66.4434 11.2972 66.4507 11.2972 66.4653 11.2899C66.4726 11.2826 66.4799 11.2753 66.4799 11.2607C66.4799 11.2534 66.4726 11.2388 66.4653 11.2388C66.458 11.2315 66.4434 11.2315 66.4288 11.2315H66.3996V11.2899V11.4285H66.4069Z" fill="white"/>
<path fill-rule="evenodd" clip-rule="evenodd" d="M50.541 11.7862C50.2637 11.8664 50.0666 11.8956 49.8623 11.8956C49.439 11.8956 49.1763 11.6256 49.1763 11.1366C49.1763 11.0418 49.1836 10.9396 49.2055 10.8301L49.2565 10.4944L49.3003 10.2244L49.6944 7.86719H50.5629L50.4607 8.37804H51.0007L50.8694 9.24649H50.322L50.0885 10.655C50.0812 10.7207 50.0739 10.7644 50.0739 10.8009C50.0739 10.9761 50.1688 11.0564 50.3804 11.0564C50.4826 11.0564 50.5629 11.0491 50.6577 11.0272L50.541 11.7862Z" fill="#003473"/>
<path fill-rule="evenodd" clip-rule="evenodd" d="M53.3363 11.7568C53.0298 11.8517 52.7306 11.8954 52.4095 11.8954C51.4462 11.8954 50.877 11.3627 50.877 10.3483C50.877 9.16603 51.5484 8.29028 52.4533 8.29028C53.1977 8.29028 53.672 8.77924 53.672 9.54552C53.672 9.80094 53.6429 10.0491 53.5626 10.3994H51.7673C51.76 10.4505 51.76 10.4796 51.76 10.5088C51.76 10.9102 52.03 11.1146 52.5555 11.1146C52.8766 11.1146 53.1685 11.0489 53.4969 10.8956L53.3363 11.7568ZM52.7963 9.69877C52.8036 9.6258 52.8036 9.56741 52.8036 9.52363C52.8036 9.24631 52.643 9.07845 52.373 9.07845C52.0884 9.07845 51.8768 9.29739 51.7965 9.69877H52.7963Z" fill="#003473"/>
<path fill-rule="evenodd" clip-rule="evenodd" d="M43.6521 11.8299H42.7472L43.2653 8.56773L42.1049 11.8299H41.4919L41.4189 8.58233L40.8716 11.8299H39.9958L40.7037 7.58252H42.0028L42.0393 10.2171L42.915 7.58252H44.3454L43.6521 11.8299Z" fill="#003473"/>
<path fill-rule="evenodd" clip-rule="evenodd" d="M45.8194 10.2902C45.7245 10.2756 45.71 10.2756 45.6443 10.2756C45.1334 10.2756 44.8707 10.4726 44.8707 10.801C44.8707 11.0127 44.9948 11.1513 45.1918 11.1513C45.6297 11.1586 45.8048 10.801 45.8194 10.2902ZM46.5346 11.83H45.7537L45.7683 11.4724C45.5713 11.7425 45.3013 11.8884 44.8196 11.8884C44.3817 11.8884 44.0168 11.5016 44.0168 10.947C44.0168 10.7791 44.046 10.6332 44.0825 10.4945C44.2285 9.96177 44.7612 9.62606 45.5786 9.61147C45.6808 9.61147 45.8413 9.61147 45.9727 9.62607C46.0019 9.5093 46.0092 9.46551 46.0092 9.39983C46.0092 9.1736 45.8194 9.10062 45.4034 9.10062C45.148 9.10062 44.8561 9.14441 44.6591 9.20279L44.535 9.23928L44.4839 9.25387L44.608 8.4803C45.0313 8.34894 45.3232 8.29785 45.6589 8.29785C46.4324 8.29785 46.8484 8.64815 46.8484 9.31226C46.8484 9.48011 46.863 9.61147 46.8046 9.99826L46.6149 11.2243L46.5857 11.4432L46.5638 11.6184L46.5492 11.7352L46.5346 11.83Z" fill="#003473"/>
<path fill-rule="evenodd" clip-rule="evenodd" d="M57.6785 8.40735C57.9266 8.40735 58.1602 8.47303 58.4886 8.63359L58.6345 7.71405C58.5542 7.67756 58.5324 7.67027 58.4156 7.63378L58.0434 7.5389C57.9266 7.50971 57.7953 7.49512 57.642 7.49512C57.1968 7.49512 56.9341 7.50241 56.6568 7.67027C56.5108 7.75784 56.3284 7.8892 56.1168 8.12273L56.0073 8.08624L55.0878 8.74305L55.1315 8.37086H54.1755L53.6282 11.8228H54.5331L54.8615 9.9618C54.8615 9.9618 54.9929 9.70637 55.0513 9.6261C55.2191 9.39986 55.3651 9.39986 55.5548 9.40716C55.5767 9.40716 55.6059 9.40716 55.6205 9.40716C55.5913 9.6115 55.5767 9.83044 55.5767 10.064C55.5767 11.1951 56.2116 11.8957 57.1895 11.8957C57.4377 11.8957 57.6566 11.8592 57.985 11.7717L58.1456 10.8011C57.8463 10.947 57.5982 11.02 57.3793 11.02C56.8538 11.02 56.54 10.6332 56.54 9.98369C56.5327 9.06416 57.0071 8.40735 57.6785 8.40735Z" fill="#003473"/>
<path fill-rule="evenodd" clip-rule="evenodd" d="M65.3118 7.58249L65.1148 8.79394C64.8959 8.46554 64.6404 8.31228 64.2901 8.31228C63.8158 8.31228 63.3779 8.5823 63.1079 9.09315V9.08586L62.5314 8.74286L62.5751 8.37067H61.6191L61.0718 11.8226H61.9767L62.2759 9.9616C62.2759 9.9616 62.5095 9.70618 62.5678 9.6259C62.6992 9.45075 62.8452 9.41426 62.9692 9.40696C62.8671 9.69888 62.8014 10.0419 62.8014 10.436C62.8014 11.2971 63.2465 11.8736 63.9034 11.8736C64.2318 11.8736 64.4872 11.7569 64.7353 11.4869L64.6915 11.8226H65.5454L66.2314 7.5752H65.3118V7.58249ZM64.2099 11.0198C63.9034 11.0198 63.7428 10.7936 63.7428 10.3411C63.7428 9.66239 64.0347 9.18073 64.4434 9.18073C64.7572 9.18073 64.9251 9.42156 64.9251 9.85943C64.9251 10.5381 64.6331 11.0198 64.2099 11.0198Z" fill="#003473"/>
<path fill-rule="evenodd" clip-rule="evenodd" d="M60.0503 10.2902C59.9554 10.2756 59.9408 10.2756 59.8751 10.2756C59.3643 10.2756 59.1015 10.4726 59.1015 10.801C59.1015 11.0127 59.2256 11.1513 59.4227 11.1513C59.8605 11.1586 60.0357 10.801 60.0503 10.2902ZM60.7655 11.83H59.9846L59.9992 11.4724C59.8021 11.7425 59.5321 11.8884 59.0505 11.8884C58.6126 11.8884 58.2185 11.5089 58.2185 10.9397C58.2258 10.1223 58.8315 9.61147 59.8094 9.61147C59.9116 9.61147 60.0722 9.61147 60.2108 9.62607C60.24 9.5093 60.2473 9.46551 60.2473 9.39983C60.2473 9.1736 60.0576 9.10062 59.6416 9.10062C59.3862 9.10062 59.0943 9.14441 58.8972 9.20279L58.7731 9.23928L58.7221 9.25387L58.8461 8.4803C59.2694 8.34894 59.5613 8.29785 59.897 8.29785C60.6706 8.29785 61.0866 8.64815 61.0866 9.31226C61.0866 9.48011 61.1012 9.61147 61.0428 9.99826L60.853 11.2243L60.8239 11.4432L60.802 11.6184L60.7874 11.7352L60.7655 11.83Z" fill="#003473"/>
<path fill-rule="evenodd" clip-rule="evenodd" d="M48.4177 9.11521C48.5929 9.11521 48.8337 9.12981 49.0964 9.1663L49.2278 8.37083C48.9651 8.33434 48.6294 8.29785 48.4177 8.29785C47.4106 8.29785 47.0749 8.83789 47.0749 9.48011C47.0749 9.88879 47.272 10.2026 47.7463 10.4288C48.1112 10.604 48.1769 10.6332 48.1769 10.7937C48.1769 11.0054 47.9871 11.1294 47.6368 11.1294C47.3668 11.1294 47.1187 11.0856 46.8268 10.9908L46.7246 11.7862L46.7465 11.7935L46.9144 11.83C46.9654 11.8373 47.0457 11.8519 47.1479 11.8665C47.3595 11.8884 47.542 11.8957 47.6587 11.8957C48.6585 11.8957 49.0745 11.5016 49.0745 10.7426C49.0745 10.2683 48.8483 9.99096 48.3958 9.77932C48.0163 9.60417 47.9725 9.58228 47.9725 9.42173C47.9725 9.25387 48.1404 9.11521 48.4177 9.11521Z" fill="#003473"/>
<path fill-rule="evenodd" clip-rule="evenodd" d="M58.8753 7.45114L58.7294 8.37067C58.4083 8.21012 58.1747 8.14444 57.9193 8.14444C57.2479 8.14444 56.7735 8.80125 56.7735 9.73538C56.7735 10.3776 57.0946 10.7717 57.6201 10.7717C57.8463 10.7717 58.0872 10.6987 58.3864 10.5527L58.2258 11.5234C57.8901 11.6109 57.6785 11.6474 57.4303 11.6474C56.4597 11.6474 55.854 10.9468 55.854 9.81565C55.854 8.29769 56.6933 7.2395 57.8901 7.2395C58.0434 7.2395 58.182 7.2541 58.2915 7.28329L58.6637 7.37816C58.7732 7.40735 58.795 7.41465 58.8753 7.45114Z" fill="white"/>
<path fill-rule="evenodd" clip-rule="evenodd" d="M55.9779 8.07883C55.9487 8.07153 55.9195 8.07153 55.883 8.07153C55.5838 8.07153 55.416 8.22479 55.1386 8.63347L55.2189 8.10802H54.4016L53.8469 11.5599H54.7592C55.0803 9.45083 55.1678 9.08594 55.5984 9.08594C55.6276 9.08594 55.6276 9.08594 55.6641 9.08594C55.7444 8.66996 55.8538 8.36345 56.0071 8.08613L55.9779 8.07883Z" fill="white"/>
<path fill-rule="evenodd" clip-rule="evenodd" d="M50.7746 11.5235C50.5265 11.6037 50.3367 11.6329 50.1251 11.6329C49.6653 11.6329 49.4099 11.3629 49.4099 10.8739C49.4099 10.7791 49.4172 10.6769 49.4391 10.5674L49.4975 10.2317L49.5413 9.96171L49.9354 7.60449H50.833L50.7308 8.11534H51.1906L51.0665 8.9546H50.6068L50.3659 10.3923C50.3586 10.458 50.3513 10.5018 50.3513 10.5382C50.3513 10.7134 50.4462 10.7937 50.6579 10.7937C50.76 10.7937 50.8403 10.7864 50.8987 10.7645L50.7746 11.5235Z" fill="white"/>
<path fill-rule="evenodd" clip-rule="evenodd" d="M47.301 9.20255C47.301 9.64042 47.5126 9.93963 47.987 10.1659C48.3519 10.341 48.4103 10.3921 48.4103 10.5454C48.4103 10.757 48.2497 10.8592 47.8921 10.8592C47.6221 10.8592 47.374 10.8154 47.0821 10.7205L46.958 11.516L47.0018 11.5233L47.1696 11.5598C47.2207 11.5671 47.301 11.5817 47.4032 11.589C47.6148 11.6108 47.7827 11.6181 47.8994 11.6181C48.8482 11.6181 49.2933 11.2533 49.2933 10.4651C49.2933 9.99072 49.1109 9.7134 48.6584 9.50176C48.2789 9.32661 48.2351 9.29012 48.2351 9.12957C48.2351 8.93982 48.3884 8.84495 48.6803 8.84495C48.8555 8.84495 49.0963 8.86684 49.3298 8.89604L49.4612 8.09327C49.2276 8.05678 48.8701 8.02759 48.6657 8.02759C47.6513 8.03489 47.301 8.56763 47.301 9.20255Z" fill="white"/>
<path fill-rule="evenodd" clip-rule="evenodd" d="M65.7719 11.5672H64.918L64.9618 11.2315C64.7137 11.5015 64.4582 11.6183 64.1298 11.6183C63.473 11.6183 63.0352 11.0491 63.0352 10.1806C63.0352 9.03485 63.7066 8.06423 64.502 8.06423C64.8523 8.06423 65.1224 8.21019 65.3705 8.5386L65.5675 7.32715H66.4579L65.7719 11.5672ZM64.4436 10.7499C64.8669 10.7499 65.1588 10.2682 65.1588 9.58219C65.1588 9.14432 64.991 8.90349 64.6772 8.90349C64.2685 8.90349 63.9766 9.38515 63.9766 10.0639C63.9766 10.5236 64.1371 10.7499 64.4436 10.7499Z" fill="white"/>
<path fill-rule="evenodd" clip-rule="evenodd" d="M53.5331 11.487C53.2266 11.5819 52.9274 11.6257 52.6063 11.6257C51.5992 11.6257 51.0737 11.0929 51.0737 10.0785C51.0737 8.88896 51.7451 8.02051 52.6501 8.02051C53.3945 8.02051 53.8688 8.50947 53.8688 9.27574C53.8688 9.53117 53.8396 9.7793 53.7593 10.1296H51.9641C51.9568 10.1807 51.9568 10.2099 51.9568 10.2391C51.9568 10.6404 52.2268 10.8448 52.7522 10.8448C53.0733 10.8448 53.3653 10.7791 53.6864 10.6259L53.5331 11.487ZM53.0296 9.4363C53.0369 9.36332 53.0369 9.30493 53.0369 9.26115C53.0369 8.98383 52.8763 8.81598 52.6063 8.81598C52.3217 8.81598 52.11 9.03491 52.0298 9.4363H53.0296Z" fill="white"/>
<path fill-rule="evenodd" clip-rule="evenodd" d="M43.878 11.5672H42.9731L43.4913 8.29774L42.3382 11.5672H41.7179L41.6449 8.31963L41.0976 11.5672H40.2583L40.9589 7.31982H42.2579L42.2944 9.94706L43.1702 7.31982H44.5786L43.878 11.5672Z" fill="white"/>
<path fill-rule="evenodd" clip-rule="evenodd" d="M46.1039 10.0273C46.009 10.02 45.9652 10.0127 45.8996 10.0127C45.3887 10.0127 45.126 10.1878 45.126 10.5381C45.126 10.7498 45.2501 10.8884 45.4471 10.8884C45.8193 10.8884 46.0893 10.5381 46.1039 10.0273ZM46.7607 11.5671H46.009L46.0236 11.2095C45.7974 11.4941 45.4909 11.6255 45.0749 11.6255C44.5859 11.6255 44.2502 11.2387 44.2502 10.6841C44.2502 9.84481 44.8341 9.35586 45.8339 9.35586C45.9361 9.35586 46.0674 9.36315 46.1988 9.38505C46.228 9.26828 46.2353 9.22449 46.2353 9.15881C46.2353 8.93258 46.0747 8.845 45.6587 8.845C45.4033 8.845 45.1114 8.88149 44.9071 8.93988L44.783 8.97637L44.7027 8.99826L44.8268 8.22468C45.2792 8.09332 45.5712 8.04224 45.9069 8.04224C46.6804 8.04224 47.0964 8.39253 47.0964 9.05664C47.0964 9.22449 47.0818 9.35586 47.0234 9.74264L46.8337 10.9687L46.8045 11.1876L46.7826 11.3628L46.768 11.4795L46.7607 11.5671Z" fill="white"/>
<path fill-rule="evenodd" clip-rule="evenodd" d="M60.3349 10.0273C60.24 10.02 60.1962 10.0127 60.1305 10.0127C59.6197 10.0127 59.3569 10.1878 59.3569 10.5381C59.3569 10.7498 59.481 10.8884 59.6781 10.8884C60.0575 10.8884 60.3203 10.5381 60.3349 10.0273ZM60.9917 11.5671H60.24L60.2546 11.2095C60.0284 11.4941 59.7218 11.6255 59.3059 11.6255C58.8169 11.6255 58.4812 11.2387 58.4812 10.6841C58.4812 9.84481 59.065 9.35586 60.0648 9.35586C60.167 9.35586 60.2984 9.36315 60.4297 9.38505C60.4589 9.26828 60.4662 9.22449 60.4662 9.15881C60.4662 8.93258 60.3057 8.845 59.8897 8.845C59.6343 8.845 59.3424 8.88149 59.138 8.93988L59.0139 8.97637L58.9337 8.99826L59.0577 8.22468C59.5102 8.09332 59.8021 8.04224 60.1378 8.04224C60.9114 8.04224 61.3274 8.39253 61.3274 9.05664C61.3274 9.22449 61.3128 9.35586 61.2544 9.74264L61.0647 10.9687L61.0355 11.1876L61.0136 11.3628L60.999 11.4795L60.9917 11.5671Z" fill="white"/>
<path fill-rule="evenodd" clip-rule="evenodd" d="M63.4145 8.07883C63.3853 8.07153 63.3561 8.07153 63.3269 8.07153C63.0277 8.07153 62.8598 8.22479 62.5825 8.63347L62.6628 8.10802H61.8454L61.2981 11.5599H62.203C62.5241 9.45083 62.6117 9.08594 63.0423 9.08594C63.0715 9.08594 63.0715 9.08594 63.108 9.08594C63.1882 8.66996 63.2977 8.36345 63.451 8.08613L63.4145 8.07883Z" fill="white"/>
<defs>
<linearGradient id="paint0_linear_652_431" x1="90.3919" y1="10.4386" x2="98.0775" y2="10.4386" gradientUnits="userSpaceOnUse">
<stop stop-color="#007F49"/>
<stop offset="1" stop-color="#62BC46"/>
</linearGradient>
<linearGradient id="paint1_linear_652_431" x1="90.391" y1="9.25032" x2="98.0778" y2="9.25032" gradientUnits="userSpaceOnUse">
<stop stop-color="#007F49"/>
<stop offset="1" stop-color="#62BC46"/>
</linearGradient>
<linearGradient id="paint2_linear_652_431" x1="90.3921" y1="7.9576" x2="98.0774" y2="7.9576" gradientUnits="userSpaceOnUse">
<stop stop-color="#007F49"/>
<stop offset="1" stop-color="#62BC46"/>
</linearGradient>
<linearGradient id="paint3_linear_652_431" x1="73.178" y1="9.25032" x2="80.8511" y2="9.25032" gradientUnits="userSpaceOnUse">
<stop stop-color="#323377"/>
<stop offset="1" stop-color="#0078C1"/>
</linearGradient>
<linearGradient id="paint4_linear_652_431" x1="81.7843" y1="9.25032" x2="89.4579" y2="9.25032" gradientUnits="userSpaceOnUse">
<stop stop-color="#743236"/>
<stop offset="1" stop-color="#ED1846"/>
</linearGradient>
</defs>
</svg>
