<svg width="99" height="33" viewBox="0 0 99 33" fill="none" xmlns="http://www.w3.org/2000/svg">
<path d="M16.1765 0C13.7176 0 11.3882 0.582353 9.31764 1.55294H23.1C20.9647 0.582353 18.6353 0 16.1765 0ZM11 3.10588H6.6647C6.01764 3.55882 5.43529 4.07647 4.85294 4.65882H8.8C9.44705 4.07647 10.2235 3.55882 11 3.10588ZM19.2176 7.7H29.8941C29.5706 7.18235 29.1823 6.6647 28.7941 6.14706H19.2176V7.7ZM7.31176 6.14706H3.42941C3.04117 6.6647 2.65294 7.18235 2.32941 7.7H6.21176C6.6 7.18235 6.92353 6.6647 7.31176 6.14706ZM19.2176 4.65882H27.4353C26.8529 4.07647 26.2706 3.55882 25.6235 3.10588H19.2176V4.65882ZM32.2882 16.1765C32.2882 15.9176 32.2882 15.6588 32.2882 15.4H26.7235C26.5294 14.8823 26.2706 14.3647 25.947 13.8471H32.0941C32.0294 13.3294 31.9 12.8118 31.7706 12.2941H24.9118C24.4588 11.7118 23.9412 11.2588 23.4235 10.7412H31.3823C31.1882 10.2235 30.9941 9.70588 30.7353 9.18823H13.0059V16.8882H19.2176V24.5882H2.39412C2.71765 25.1059 3.10588 25.6235 3.49412 26.1412H13.0706V27.6941H4.85294C5.43529 28.2765 6.01764 28.7941 6.6647 29.247H13.0059V30.8H9.25294C11.3235 31.7706 13.6529 32.3529 16.1765 32.3529C18.6353 32.3529 20.9647 31.8353 23.0353 30.8H21.2882C22.0647 30.347 22.7765 29.8294 23.4235 29.247H25.6235C26.2706 28.7941 26.8529 28.2765 27.4353 27.6941H24.9118C25.3 27.2412 25.6235 26.7235 25.947 26.1412H28.7941C29.1823 25.6235 29.5706 25.1706 29.8941 24.5882H26.7235C26.9176 24.0706 27.1117 23.5529 27.2412 23.0353H30.7353C30.9941 22.5176 31.1882 22 31.3823 21.4823H27.5C27.5647 20.9647 27.5647 20.447 27.5647 19.9294H31.7706C31.9 19.4118 31.9647 18.8941 32.0941 18.3765H27.5C27.4353 17.8588 27.3059 17.3412 27.1765 16.8235H32.2235C32.2882 16.6941 32.2882 16.4353 32.2882 16.1765ZM7.31176 21.547H0.905882C1.1 22.0647 1.29412 22.5823 1.55294 23.1H8.8C8.28235 22.647 7.7647 22.1294 7.31176 21.547ZM5.5647 18.5059H0.194118C0.258823 19.0235 0.388235 19.5412 0.517647 20.0588H6.34117C6.01764 19.5412 5.75882 19.0235 5.5647 18.5059ZM4.65882 13.8471C4.65882 13.3294 4.72353 12.8118 4.72353 12.2941H0.452941C0.323529 12.8118 0.258823 13.3294 0.129412 13.8471H4.65882ZM5.5647 9.25294H1.55294C1.29412 9.77058 1.1 10.2882 0.905882 10.8059H5.04706C5.17647 10.2882 5.30588 9.77058 5.5647 9.25294ZM4.72353 15.4H0C0 15.6588 0 15.9176 0 16.1765C0 16.4353 0 16.6941 0 16.9529H4.98235C4.91764 16.4353 4.78823 15.9176 4.72353 15.4Z" fill="#0065AC"/>
<path d="M44.7765 26.2057C44.4529 26.3998 43.9353 26.594 42.9647 26.594C41.4118 26.594 40.3765 25.3646 40.3765 23.941C40.3765 22.5175 41.4118 21.2881 42.9647 21.2881C44 21.2881 44.4529 21.5469 44.7118 21.6763L44.4529 22.2587C44.2588 22.194 43.8706 21.9351 43.0294 21.9351C42.1235 21.9351 41.2823 22.7763 41.2823 23.941C41.2823 25.041 42.1235 25.8822 43.0941 25.8822C43.8706 25.8822 44.2588 25.6881 44.5176 25.5587L44.7765 26.2057ZM47.6235 26.5293V24.3293C47.6235 24.0057 47.4941 23.7469 47.1059 23.7469C46.7176 23.7469 46.3941 24.0057 46.2647 24.0704V26.5293H45.4235V21.6763L46.2647 21.4822V23.5528C46.3941 23.4234 46.7823 23.0998 47.4941 23.0998C48.1412 23.0998 48.4647 23.5528 48.4647 24.1351V26.5293H47.6235ZM63.1529 26.5293V24.3293C63.1529 24.0057 63.0235 23.7469 62.6353 23.7469C62.247 23.7469 61.9235 24.0057 61.7941 24.0704V26.5293H60.9529V21.6763L61.7941 21.4822V23.5528C61.9235 23.4234 62.3118 23.0998 63.0235 23.0998C63.6706 23.0998 63.9941 23.5528 63.9941 24.1351V26.5293H63.1529ZM55.3882 26.5293V24.3293C55.3882 24.0057 55.2588 23.7469 54.8706 23.7469C54.4823 23.7469 54.1588 24.0057 54.0294 24.0704V26.5293H53.1882V23.3587L53.9647 23.1646V23.4881C54.0941 23.3587 54.4823 23.0351 55.1941 23.0351C55.8412 23.0351 56.2294 23.4234 56.2294 24.0704V26.5293H55.3882ZM58.1059 25.2998C57.9118 25.2998 57.5235 25.3646 57.5235 25.6234C57.5235 25.9469 57.847 25.9469 58.1059 25.9469H59.0765C59.7882 25.9469 60.3706 26.3998 60.2412 27.1116C60.1765 27.8881 59.2706 28.4057 58.4941 28.4057C57.6529 28.4057 56.6823 28.2116 56.6823 27.4351C56.6823 26.9175 57.0706 26.6587 57.2647 26.5293C57.1353 26.4646 56.8118 26.2704 56.8118 25.8175C56.8118 25.4293 57.1353 25.041 57.3941 24.9763C57.2 24.8469 57.0059 24.6528 57.0059 24.1998C57.0059 23.6822 57.3941 23.0998 58.3 23.0998C58.6882 23.0998 58.8176 23.1646 58.947 23.1646H60.2412V23.6175H59.5294C59.5941 23.6822 59.7882 23.8763 59.7882 24.1998C59.7882 24.9116 59.1412 25.2998 58.4294 25.2998H58.1059ZM57.3941 27.3704C57.3941 27.7587 57.9765 27.8881 58.4941 27.8881C59.0118 27.8881 59.5294 27.5646 59.5941 27.241C59.6588 26.8528 59.4 26.6587 59.0765 26.6587H57.9765C57.7176 26.7234 57.3941 26.9822 57.3941 27.3704ZM57.7823 24.1998C57.7823 24.5234 57.9765 24.7822 58.4294 24.7822C58.8176 24.7822 59.0117 24.5234 59.0117 24.1998C59.0117 23.941 58.8176 23.6175 58.4294 23.6175C58.0412 23.6175 57.7823 23.941 57.7823 24.1998ZM66.1941 23.1646H66.9706L67.6823 25.3646L68.4588 23.1646H69.1706L67.8765 26.594H67.4235L66.8412 24.8469L66.1941 26.594H65.7412L64.5117 23.1646H65.2882L66.0647 25.4293L66.5823 24.1351L66.1941 23.1646ZM70.4 26.6587C69.7529 26.6587 69.3647 26.2704 69.3647 25.7528C69.3647 25.1704 69.8176 24.6528 70.6588 24.6528L71.3706 24.5881V24.3293C71.3706 24.0057 71.2412 23.7469 70.7235 23.7469C70.2706 23.7469 69.947 23.8763 69.7529 23.941L69.5588 23.4881C69.7529 23.3587 70.2706 23.1646 70.9176 23.1646C71.6941 23.1646 72.0823 23.5528 72.0823 24.1351V26.0763C72.0823 26.2704 72.147 26.5293 72.2117 26.594H71.3706C71.3059 26.5293 71.3059 26.3351 71.3059 26.2704C71.2412 26.3998 70.9176 26.6587 70.4 26.6587ZM71.3706 24.9763L70.9176 25.041C70.4647 25.1057 70.1412 25.2351 70.1412 25.6234C70.1412 25.9469 70.4 26.0763 70.7235 26.0763C71.047 26.0763 71.2412 25.8822 71.4353 25.7528V24.9763H71.3706ZM50.147 23.1646V25.3646C50.147 25.6881 50.2765 25.9469 50.6647 25.9469C51.0529 25.9469 51.3118 25.7528 51.5059 25.6234V23.1646H52.347V26.3351L51.5059 26.5293V26.2057C51.3765 26.3351 50.9882 26.6587 50.3412 26.6587C49.6941 26.6587 49.3706 26.2704 49.3706 25.6234V23.2293H50.147V23.1646ZM73.3764 21.4822H77.5176V22.1293H75.9V26.5293H74.9941V22.0646H73.3764V21.4822ZM78.6823 26.0763C79.2 26.0763 79.4588 25.9469 79.5882 25.8822L79.7823 26.3351C79.5882 26.3998 79.2647 26.594 78.4235 26.594C77.3882 26.594 76.7412 25.9469 76.7412 24.8469C76.7412 23.8116 77.4529 23.0351 78.3588 23.0351C79.2 23.0351 79.9117 23.6175 79.9117 24.8469H77.5823C77.5823 25.6234 77.9706 26.0763 78.6823 26.0763ZM78.2941 23.6822C77.8412 23.6822 77.647 24.0057 77.5823 24.4587H79.0059C79.0059 23.941 78.747 23.6822 78.2941 23.6822ZM80.5588 21.6763L81.4 21.4822V26.5293H80.5588V21.6763ZM84.0529 26.0763C84.5706 26.0763 84.8294 25.9469 84.9588 25.8822L85.1529 26.3351C84.9588 26.3998 84.6353 26.594 83.7941 26.594C82.7588 26.594 82.1117 25.9469 82.1117 24.8469C82.1117 23.8116 82.8235 23.0351 83.7294 23.0351C84.5706 23.0351 85.2823 23.6175 85.2823 24.8469H82.9529C82.9529 25.6234 83.3411 26.0763 84.0529 26.0763ZM83.7294 23.6822C83.2764 23.6822 83.0823 24.0057 83.0176 24.4587H84.4412C84.3764 23.941 84.1176 23.6822 83.7294 23.6822ZM87.547 23.0998C88.1941 23.0998 88.5176 23.2293 88.7117 23.294L88.5176 23.8116C88.3235 23.7469 88.1294 23.6822 87.6764 23.6822C87.2235 23.6822 86.6411 24.0704 86.6411 24.9116C86.6411 25.6881 87.2235 26.141 87.6764 26.141C88.1294 26.141 88.3882 26.0763 88.5823 26.0116L88.7764 26.5293C88.5823 26.594 88.2588 26.7234 87.6117 26.7234C86.5117 26.7234 85.8 26.0116 85.8 24.9763C85.8 23.8116 86.6412 23.0998 87.547 23.0998ZM92.6588 24.8469C92.6588 25.9469 91.8823 26.594 90.847 26.594C89.8117 26.594 89.0353 25.8822 89.0353 24.8469C89.0353 23.7469 89.8117 23.0998 90.847 23.0998C91.8823 23.0998 92.6588 23.8116 92.6588 24.8469ZM89.8764 24.8469C89.8764 25.5587 90.2647 26.0763 90.847 26.0763C91.3647 26.0763 91.8176 25.5587 91.8176 24.8469C91.8176 24.1351 91.4294 23.6175 90.847 23.6175C90.2 23.6822 89.8764 24.1351 89.8764 24.8469ZM98.2235 26.5293H97.3823V24.3293C97.3823 24.0057 97.2529 23.7469 96.8647 23.7469C96.5411 23.7469 96.2823 23.941 96.1529 24.0704V26.5293H95.3117V24.3293C95.3117 24.0057 95.1823 23.7469 94.7941 23.7469C94.5353 23.7469 94.2117 23.941 94.0823 24.0704V26.5293H93.2411V23.3587L94.0176 23.1646V23.5528C94.2117 23.4234 94.5353 23.0998 95.0529 23.0998C95.5058 23.0998 95.7647 23.2293 95.8941 23.5528C96.0882 23.3587 96.4764 23.0998 97.0588 23.0998C97.7059 23.0998 98.0941 23.5528 98.0941 24.1351V26.5293H98.2235Z" fill="black"/>
<path d="M88.9059 6.08252C89.1 6.14723 89.2294 6.21193 89.2941 6.34134C89.3588 6.47075 89.4235 6.66487 89.3588 6.85899C89.1647 7.89428 88.9059 8.73546 88.6471 9.44722V17.5355C88.6471 17.7296 88.5824 17.859 88.4529 17.9884C88.3235 18.1178 88.1941 18.1825 88 18.1825C87.8059 18.1825 87.6765 18.1178 87.5471 17.9884C87.4177 17.859 87.3529 17.7296 87.3529 17.5355C87.3529 17.5355 87.3529 11.9708 87.3529 11.7119C87.0294 12.1649 86.9 12.1649 86.7059 12.2296C86.5765 12.2296 86.3824 12.2296 86.3176 12.1002C86.1882 11.9708 86.1235 11.8413 86.1235 11.7119C86.1235 11.5825 86.1882 11.3884 86.3176 11.259C87.2882 9.83546 87.8706 8.34722 88.1294 6.72958C88.1294 6.53546 88.2588 6.34134 88.3882 6.27664C88.5177 6.14723 88.7118 6.08252 88.9059 6.08252ZM90.7824 13.7178H97.3823C97.6412 13.7178 97.9 13.7825 98.0294 13.9766C98.2235 14.1708 98.2882 14.3002 98.2882 14.4943V17.0178C98.2882 17.2766 98.1588 17.4707 97.9647 17.6649C97.7706 17.859 97.5765 17.9237 97.3823 17.9237H90.7824C90.5235 17.9237 90.3941 17.859 90.2 17.6649C90.0059 17.4707 90.0059 17.2766 90.0059 17.0178V14.4943C90.0059 14.3002 90.0706 14.106 90.2 13.9766C90.3941 13.8472 90.5882 13.7178 90.7824 13.7178ZM91.5588 14.8825C91.3647 14.8825 91.3 14.9472 91.3 14.9472C91.2353 15.0119 91.2353 15.0766 91.2353 15.206V16.4355C91.2353 16.5649 91.3 16.6296 91.3 16.6943C91.3647 16.759 91.4294 16.8237 91.5588 16.8237H96.7353C96.8647 16.8237 96.9941 16.759 97.0588 16.759C97.1235 16.6943 97.1235 16.6296 97.1235 16.5002V15.2708C97.1235 15.1413 97.1235 15.0766 97.0588 15.0119C96.9941 14.9472 96.9294 14.8825 96.7353 14.8825H91.5588ZM90.7176 11.8413C90.5235 11.8413 90.3941 11.906 90.2647 12.0355C90.1353 12.1649 90.1353 12.2943 90.1353 12.4237C90.1353 12.5531 90.2 12.7472 90.2647 12.8119C90.3941 12.9413 90.5235 13.006 90.7176 13.006H97.5765C97.7706 13.006 97.9 12.9413 97.9647 12.8119C98.0941 12.6825 98.0941 12.5531 98.0941 12.4237C98.0941 12.2943 98.0294 12.1002 97.9647 12.0355C97.9 11.9708 97.7706 11.906 97.5765 11.906H90.7176V11.8413ZM90.7176 10.0296C90.5235 10.0296 90.3941 10.0943 90.2647 10.2237C90.1353 10.3531 90.1353 10.4825 90.1353 10.6119C90.1353 10.7413 90.2 10.9355 90.2647 11.0002C90.3941 11.1296 90.5235 11.1943 90.7176 11.1943H97.5765C97.7706 11.1943 97.9 11.1296 97.9647 11.0002C98.0941 10.8708 98.0941 10.7413 98.0941 10.6119C98.0941 10.4825 98.0294 10.3531 97.9647 10.2237C97.9 10.0943 97.7059 10.0296 97.5765 10.0296H90.7176ZM89.9412 8.21781C89.7471 8.21781 89.6176 8.28252 89.4882 8.41193C89.4235 8.54134 89.3588 8.67075 89.3588 8.80017C89.3588 8.92958 89.4235 9.12369 89.4882 9.1884C89.6176 9.31781 89.6824 9.31781 89.9412 9.31781H98.4823C98.6765 9.31781 98.8059 9.25311 98.8706 9.1884C99 9.05899 99 8.92958 99 8.80017C99 8.67075 98.9353 8.47664 98.8706 8.41193C98.8059 8.34722 98.6765 8.21781 98.4823 8.21781H89.9412ZM90.7176 6.40605C90.5235 6.40605 90.3941 6.47076 90.2647 6.53546C90.1353 6.66487 90.1353 6.72958 90.1353 6.9237C90.1353 7.11781 90.2 7.24723 90.2647 7.31193C90.3294 7.37664 90.5235 7.44134 90.7176 7.44134H97.5765C97.7706 7.44134 97.9 7.37664 97.9647 7.31193C98.0941 7.18252 98.0941 7.11781 98.0941 6.9237C98.0941 6.72958 98.0294 6.60017 97.9647 6.53546C97.9 6.47076 97.7706 6.40605 97.5765 6.40605H90.7176Z" fill="black"/>
<path d="M68.3293 7.31195C68.3293 7.44136 68.2646 7.57077 68.1999 7.70018C68.0705 7.82959 67.9411 7.8943 67.8117 7.8943H65.094V7.95901C65.094 8.15312 65.0293 8.28254 64.8999 8.41195C64.7705 8.54136 64.6411 8.60607 64.447 8.60607C64.2528 8.60607 64.1234 8.54136 63.994 8.41195C63.8646 8.28254 63.7999 8.15312 63.7999 7.95901V7.8943H60.4352V7.95901C60.4352 8.15312 60.3705 8.28254 60.2411 8.41195C60.1117 8.54136 59.9823 8.60607 59.7881 8.60607C59.594 8.60607 59.4646 8.54136 59.3352 8.41195C59.2058 8.28254 59.1411 8.15312 59.1411 7.95901V7.8943H56.4234C56.2293 7.8943 56.0999 7.82959 56.0352 7.76489C55.9058 7.63548 55.9058 7.50607 55.9058 7.37665C55.9058 7.24724 55.9705 7.05312 56.0352 6.98842C56.0999 6.92371 56.2293 6.85901 56.4234 6.85901H59.1411V6.60018C59.1411 6.40607 59.2058 6.27665 59.3352 6.14724C59.4646 6.01783 59.594 5.95312 59.7881 5.95312C59.9823 5.95312 60.1117 6.01783 60.2411 6.14724C60.3705 6.27665 60.4352 6.40607 60.4352 6.60018V6.85901H63.7999V6.60018C63.7999 6.40607 63.8646 6.27665 63.994 6.14724C64.1234 6.01783 64.2528 5.95312 64.447 5.95312C64.6411 5.95312 64.7705 6.01783 64.8999 6.14724C65.0293 6.27665 65.094 6.40607 65.094 6.60018V6.85901H67.8117C68.0058 6.85901 68.1352 6.92371 68.1999 6.98842C68.2646 7.05312 68.3293 7.18254 68.3293 7.31195ZM59.7881 12.1649V13.2649H61.6646V12.1649H59.7881ZM62.8293 9.90018V11.0649H64.7058V9.90018H62.8293ZM64.6411 12.2943V12.1002H62.7646V13.2002H67.4234C67.6175 13.2002 67.6822 13.2649 67.8117 13.3296C67.9411 13.459 67.9411 13.6531 67.9411 13.7178C67.9411 13.8472 67.8764 13.9767 67.8117 14.1061C67.6822 14.2355 67.6175 14.3002 67.4234 14.3002H62.7646V15.2061H67.747C67.9411 15.2061 68.0705 15.2708 68.1352 15.3355C68.2646 15.4649 68.2646 15.5943 68.2646 15.7237C68.2646 15.8531 68.1999 16.0472 68.1352 16.1119C68.0705 16.2414 67.9411 16.2414 67.747 16.2414H62.7646V17.4061C62.7646 17.6002 62.6999 17.7296 62.5705 17.859C62.4411 17.9884 62.3117 18.0531 62.1175 18.0531C61.9234 18.0531 61.794 17.9884 61.6646 17.859C61.5352 17.7296 61.4705 17.6002 61.4705 17.4061V16.2414H56.4881C56.294 16.2414 56.1646 16.1766 56.0999 16.1119C55.9705 15.9825 55.9705 15.7884 55.9705 15.7237C55.9705 15.5943 56.0352 15.4649 56.0999 15.3355C56.1646 15.2708 56.294 15.2061 56.4881 15.2061H61.4705V14.3002H56.9411C56.747 14.3002 56.6175 14.2355 56.5528 14.1708C56.4234 14.1061 56.4234 13.9119 56.4234 13.7825C56.4234 13.6531 56.4881 13.5237 56.5528 13.3943C56.6175 13.3296 56.8117 13.2649 56.9411 13.2649H58.5587V12.1649H56.294C56.0999 12.1649 55.9705 12.1002 55.9058 12.0355C55.7764 11.9061 55.7764 11.7767 55.7764 11.6472C55.7764 11.5178 55.8411 11.3884 55.9058 11.259C55.9705 11.1296 56.1646 11.1296 56.294 11.1296H58.6234V11.0002C58.6234 10.8061 58.6881 10.6767 58.7528 10.5472C58.8823 10.4178 59.0117 10.3531 59.2058 10.3531C59.3999 10.3531 59.5293 10.4178 59.6587 10.5472C59.7881 10.6767 59.8528 10.8061 59.8528 11.0002V11.1296H61.7293V9.96489H56.9411C56.747 9.96489 56.6175 9.90018 56.5528 9.83548C56.4234 9.70606 56.4234 9.51195 56.4234 9.44724C56.4234 9.38254 56.4881 9.12371 56.5528 9.05901C56.6175 8.9943 56.8117 8.92959 56.9411 8.92959H67.4234C67.6175 8.92959 67.747 8.9943 67.8117 9.05901C67.9411 9.18842 67.9411 9.31783 67.9411 9.44724C67.9411 9.57665 67.8764 9.70606 67.8117 9.83548C67.747 9.96489 67.6175 10.0296 67.4234 10.0296H65.8058V11.1943H68.1352C68.3293 11.1943 68.394 11.259 68.5234 11.3237C68.6528 11.4531 68.6528 11.5825 68.6528 11.7119C68.6528 11.8414 68.5881 11.9708 68.5234 12.1002C68.394 12.2296 68.3293 12.2943 68.1352 12.2943H65.8058V12.4884C65.8058 12.6825 65.7411 12.8119 65.6117 12.9414C65.4822 13.0708 65.3528 13.1355 65.1587 13.1355C64.9646 13.1355 64.8352 13.0708 64.7058 12.9414C64.7058 12.6178 64.6411 12.4884 64.6411 12.2943Z" fill="black"/>
<path d="M46.0059 6.08227C45.8765 6.21168 45.8118 6.34109 45.8118 6.53521V7.44109H41.4765C41.1529 7.44109 40.8941 7.5705 40.6353 7.76462C40.4412 8.02344 40.3118 8.28227 40.3118 8.54109C40.3118 8.54109 40.3118 14.7529 40.3118 14.8176C40.3118 15.1411 40.4412 15.3999 40.6353 15.594C40.8941 15.7881 41.1529 15.9176 41.4765 15.9176H45.8118V17.4705C45.8118 17.7293 45.8765 17.9234 46.0059 17.9881C46.0706 18.0528 46.2647 18.1823 46.4588 18.1823C46.6529 18.1823 46.8471 18.1176 46.9118 17.9881C46.9765 17.9234 47.1059 17.7293 47.1059 17.4705V15.9823H51.4412C51.7647 15.9823 52.0882 15.7881 52.2824 15.6587C52.4765 15.4646 52.6059 15.1411 52.6059 14.8823V8.6705C52.6059 8.34697 52.4765 8.08815 52.2824 7.89403C52.0882 7.63521 51.7647 7.5705 51.4412 7.5705H47.1059V6.66462C47.1059 6.4705 47.0412 6.27639 46.9118 6.21168C46.7824 6.08227 46.5882 6.01756 46.4588 6.01756C46.3294 5.88815 46.1353 5.95286 46.0059 6.08227ZM41.7353 14.6234C41.6706 14.5587 41.6059 14.494 41.6059 14.3646V9.05874C41.6059 8.92933 41.6706 8.86462 41.7353 8.79991C41.8 8.73521 41.9294 8.6705 41.9941 8.6705H45.8765V14.6881H41.9941C41.8647 14.6881 41.8 14.6881 41.7353 14.6234ZM50.9882 8.6705C51.1176 8.6705 51.1824 8.73521 51.3118 8.79991C51.3765 8.86462 51.4412 8.92933 51.4412 9.05874V14.2999C51.4412 14.4293 51.3765 14.494 51.3118 14.5587C51.2471 14.6234 51.1824 14.6881 51.0529 14.6881H47.1706V8.6705H50.9882Z" fill="black"/>
<path d="M75.3821 9.44706C75.5115 9.44706 75.5763 9.51177 75.7057 9.57647C75.7704 9.64118 75.8351 9.77059 75.8351 9.9C75.8351 10.0294 75.7704 10.0941 75.7057 10.2235C75.641 10.2882 75.5115 10.3529 75.3821 10.3529H73.3115C73.1821 10.3529 73.0527 10.2882 72.988 10.2235C72.9233 10.1588 72.8586 10.0294 72.8586 9.9C72.8586 9.77059 72.9233 9.70588 72.988 9.57647C73.0527 9.51177 73.1821 9.44706 73.3115 9.44706H75.3821ZM76.1586 10.7412C76.288 10.7412 76.3527 10.8059 76.4821 10.8706C76.5468 10.9353 76.6115 11.0647 76.6115 11.1941C76.6115 11.3235 76.5468 11.3882 76.4821 11.5176C76.4174 11.5824 76.288 11.6471 76.1586 11.6471H74.088C73.9586 11.6471 73.8292 11.5824 73.7645 11.5176C73.6998 11.4529 73.6351 11.3235 73.6351 11.1941C73.6351 11.0647 73.6998 11 73.7645 10.8706C73.8292 10.8059 73.9586 10.7412 74.088 10.7412H76.1586ZM81.0763 9.44706C81.2057 9.44706 81.2704 9.51177 81.3998 9.57647C81.4645 9.64118 81.5292 9.77059 81.5292 9.9C81.5292 10.0294 81.4645 10.0941 81.3998 10.2235C81.3351 10.2882 81.2057 10.3529 81.0763 10.3529H79.0057C78.8763 10.3529 78.7468 10.2882 78.6821 10.2235C78.6174 10.1588 78.5527 10.0294 78.5527 9.9C78.5527 9.77059 78.6174 9.70588 78.6821 9.57647C78.7468 9.51177 78.8763 9.44706 79.0057 9.44706H81.0763ZM81.788 10.7412C81.9174 10.7412 81.9821 10.8059 82.1115 10.8706C82.1763 10.9353 82.241 11.0647 82.241 11.1941C82.241 11.3235 82.1763 11.3882 82.1115 11.5176C82.0468 11.5824 81.9174 11.6471 81.788 11.6471H79.7174C79.588 11.6471 79.4586 11.5824 79.3939 11.5176C79.3292 11.4529 79.2645 11.3235 79.2645 11.1941C79.2645 11.0647 79.3292 11 79.3939 10.8706C79.4586 10.8059 79.588 10.7412 79.7174 10.7412H81.788ZM73.3763 13.2647C73.3763 13.2 73.3763 13.1353 73.441 13.0706C73.5057 13.0059 73.5704 13.0059 73.6998 13.0059H76.9998V13.7176H73.441C73.3763 13.6529 73.3763 13.2647 73.3763 13.2647ZM76.9351 14.6235V15.3353H73.6351C73.5057 15.3353 73.441 15.3353 73.3763 15.2706C73.3115 15.2059 73.3115 15.1412 73.3115 15.0765V14.6882H76.9351V14.6235ZM81.3998 13.0059C81.5292 13.0059 81.5939 13.0706 81.6586 13.1353C81.7233 13.2 81.7233 13.2647 81.7233 13.3294V13.7176H78.1645V13.0059H81.3998ZM81.7233 14.6235C81.7233 14.6235 81.7233 14.9471 81.7233 15.0118C81.7233 15.1412 81.7233 15.2059 81.6586 15.2059C81.5939 15.2706 81.5292 15.2706 81.3998 15.2706H78.1645V14.5588H81.7233V14.6235ZM82.8233 16.9529C82.8233 16.9529 79.0057 16.9529 78.6821 16.9529C78.5527 16.9529 78.3586 16.9529 78.2292 16.8235C78.0998 16.6941 78.1645 16.5 78.1645 16.2412C78.2292 16.2412 82.0468 16.2412 82.0468 16.2412C82.241 16.2412 82.4351 16.1765 82.5645 15.9824C82.7586 15.7882 82.8233 15.6588 82.8233 15.4V12.6824C82.8233 12.4882 82.7586 12.2941 82.6292 12.1647C82.4351 12.0353 82.241 11.9706 82.0468 11.9706H72.9233C72.7292 11.9706 72.5351 12.0353 72.4057 12.1647C72.2763 12.2941 72.2115 12.4882 72.2115 12.6824V15.4C72.2115 15.5941 72.2763 15.7882 72.4057 15.9824C72.5351 16.1118 72.6645 16.1765 72.8586 16.2412H76.8704C76.8704 16.2412 76.8704 16.6294 76.8704 16.6941C76.8704 17.1471 77.1292 17.5353 77.3233 17.7294C77.5821 17.9235 77.9057 17.9882 78.1645 17.9882C78.5527 17.9882 82.6939 17.9882 82.6939 17.9882C82.9527 17.9882 83.2115 17.7941 83.2115 17.4706C83.341 17.2118 83.0821 16.9529 82.8233 16.9529ZM82.4998 8.99412C82.5645 8.99412 82.6292 9.05882 82.6939 9.05882C82.7586 9.12353 82.7586 9.18824 82.7586 9.25294V11C82.7586 11.1941 82.8233 11.3882 82.9527 11.4529C83.0821 11.5824 83.2115 11.5824 83.341 11.5824C83.4704 11.5824 83.6645 11.5176 83.7292 11.3882C83.7939 11.3235 83.9233 11.1294 83.9233 10.9353V8.86471C83.9233 8.60588 83.8586 8.34706 83.6645 8.21765C83.4704 8.02353 83.2763 7.95882 83.0174 7.95882H78.1645V7.37647H82.3057C82.4351 7.37647 82.5645 7.31177 82.6292 7.24706C82.6939 7.18235 82.7586 6.98824 82.7586 6.92353C82.7586 6.79412 82.6939 6.66471 82.6292 6.5353C82.5645 6.47059 82.4351 6.40588 82.3057 6.40588H72.9233C72.7939 6.40588 72.6645 6.47059 72.5351 6.5353C72.4057 6.6 72.4057 6.72941 72.4057 6.85883C72.4057 6.98824 72.4704 7.11765 72.5351 7.24706C72.5998 7.31177 72.7292 7.37647 72.9233 7.37647H77.0645V7.95882H72.2115C71.9527 7.95882 71.7586 8.08824 71.5645 8.21765C71.3704 8.41177 71.3057 8.60588 71.3057 8.86471V11C71.3057 11.1941 71.3704 11.3882 71.4998 11.4529C71.5645 11.5176 71.7586 11.6471 71.888 11.6471C72.0174 11.6471 72.2115 11.5824 72.2763 11.5176C72.4057 11.4529 72.4704 11.2588 72.4704 11.0647V9.31765C72.4704 9.25294 72.4704 9.18824 72.5351 9.12353C72.5998 9.05882 72.6645 9.05882 72.7292 9.05882H77.0645V11.1941C77.0645 11.3882 77.1292 11.5824 77.2586 11.6471C77.388 11.7765 77.5174 11.7765 77.6468 11.7765C77.7763 11.7765 77.9704 11.7118 78.0351 11.6471C78.0998 11.5176 78.2292 11.3882 78.2292 11.1941V9.05882H82.4998V8.99412Z" fill="black"/>
</svg>
