<svg width="94" height="20" viewBox="0 0 94 20" fill="none" xmlns="http://www.w3.org/2000/svg">
<path d="M18.7398 6.18556C20.6952 11.1915 18.1923 16.8232 13.1864 18.7786C11.0745 19.639 8.72795 19.639 6.53786 18.935C1.53193 17.2142 -1.20569 11.6608 0.515102 6.57665C1.29728 4.23012 2.93985 2.3529 5.05172 1.17963C9.823 -1.40155 15.6893 0.397458 18.2705 5.16873C18.4269 5.4816 18.5834 5.79447 18.7398 6.18556Z" fill="#00A19B"/>
<path d="M9.43194 4.62122C9.74481 4.543 10.2141 4.23013 10.527 4.543C10.7616 4.93409 11.3874 5.01231 11.2309 5.48161C11.5438 5.95092 11.9349 6.34201 12.326 6.65488C12.4042 6.65488 12.4824 6.57666 12.4824 6.57666L12.4042 6.49844C12.5606 6.34201 12.8735 6.57666 13.1082 6.42023C13.2646 6.42023 13.421 6.49844 13.4993 6.57666C13.5775 6.7331 13.6557 6.96775 13.7339 7.12418L13.8121 7.04597C13.8903 7.2024 13.9686 7.35884 14.0468 7.51527C14.7507 7.74992 15.0636 8.61032 15.6893 9.00141C16.3933 9.54893 17.2537 10.0182 18.1141 10.3311C18.1141 10.4875 18.1923 10.4875 18.2705 10.4875C18.1923 10.4093 18.0359 10.4093 17.8794 10.4093C17.9577 10.5658 18.2705 10.4875 18.3487 10.7222H18.0359C18.0359 10.8004 18.1141 10.8004 18.1141 10.8004C17.9577 10.7222 17.8012 10.8786 17.723 10.644C17.0973 10.4093 16.5497 10.0965 15.924 9.78358C16.3933 10.1747 16.9408 10.4875 17.4883 10.7222C17.6448 10.8004 17.8794 10.8786 18.0359 11.0351C17.9577 11.0351 17.8794 11.0351 17.8794 11.1133L17.723 11.0351V11.1133L17.8012 11.1915C17.0973 10.9568 16.3933 10.5658 15.8458 10.1747C15.5329 9.94002 15.2983 9.78358 14.9854 9.62715C14.9854 9.62715 14.9072 9.62715 14.9072 9.70536C15.22 9.94002 15.6111 10.0965 15.924 10.3311C15.22 10.0182 14.5943 9.54893 14.125 9.00141C13.8903 8.76675 13.5775 8.29745 13.2646 8.37567C13.1082 8.45388 12.9517 8.45388 12.7953 8.5321C12.7171 8.5321 12.5606 8.37566 12.4824 8.45388C12.4042 8.68854 12.0913 8.5321 12.0131 8.76675C11.8567 8.84497 11.4656 8.76675 11.3874 9.00141V9.07962C10.9963 9.23606 10.4488 9.23606 10.2141 9.54893C10.1359 9.62715 9.97946 9.54893 9.90124 9.62715V9.54893C9.82302 9.47071 9.74481 9.62715 9.66659 9.62715C9.58837 9.54893 9.74481 9.47071 9.74481 9.47071C9.58837 9.39249 9.51015 9.62715 9.35372 9.70536C9.35372 9.54893 9.51015 9.54893 9.58837 9.39249C9.51015 9.31428 9.43193 9.47071 9.35372 9.47071C9.35372 9.47071 9.43193 9.31428 9.35372 9.31428C9.43193 9.15784 9.66659 9.23606 9.74481 9.00141H9.58837C9.7448 8.84497 9.90124 8.76675 10.0577 8.61032C9.97946 8.61032 9.90124 8.45388 9.82302 8.61032V8.5321C9.74481 8.45388 9.66659 8.61032 9.58837 8.61032C9.58837 8.61032 9.58837 8.5321 9.51015 8.5321H9.43194C9.51015 8.45388 9.58837 8.37567 9.66659 8.29745L9.43194 8.45388C9.74481 8.29745 9.97946 8.06279 10.2923 7.90636L10.3705 7.82814C10.2923 7.74992 10.2141 7.74992 10.0577 7.82814C10.2923 7.82814 10.0577 7.51527 10.2923 7.51527C10.3705 7.28062 10.527 7.12418 10.6834 7.04597C10.4488 6.81131 10.3705 6.34201 10.0577 6.26379C10.0577 6.10735 9.90124 6.26379 9.82302 6.10735C9.51015 6.10735 9.04085 6.26379 8.80619 5.95092C8.64976 5.8727 8.41511 5.8727 8.25867 5.95092C8.10224 6.10735 8.02402 6.26379 7.9458 6.42023C7.78937 6.57666 7.71115 6.7331 7.63293 6.88953C7.47649 7.2024 7.24184 7.35884 6.92897 7.51527C6.69432 7.82814 6.22501 7.67171 5.99036 7.98458V7.90636C5.91214 7.90636 5.83392 7.90636 5.83392 8.06279V8.14101C5.67749 8.06279 5.59927 8.29745 5.52105 8.37567C5.20818 8.76675 4.66066 8.76675 4.26957 9.00141C3.64383 9.15784 3.33096 9.62715 2.86166 10.0965C2.70522 10.2529 2.54879 10.4093 2.39235 10.5658C2.39235 10.7222 2.23592 10.8004 2.1577 10.8786C2.23592 10.644 2.39235 10.5658 2.39235 10.4093C2.23592 10.4875 2.23592 10.644 2.00126 10.7222C1.92305 10.644 2.07948 10.5658 2.00126 10.4875L1.76661 10.644L2.00126 10.3311C1.92305 10.3311 1.76661 10.5658 1.61017 10.5658C1.61017 10.644 1.53196 10.644 1.45374 10.644C1.53196 10.5658 1.68839 10.4093 1.76661 10.3311C1.61017 10.2529 1.45374 10.4093 1.37552 10.4093C1.37552 10.4093 1.37552 10.2529 1.2973 10.3311C1.45374 10.2529 1.53196 10.1747 1.61017 10.0965C1.53196 10.0965 1.45374 10.0965 1.37552 10.1747C1.37552 10.0965 1.61017 10.0182 1.53196 9.8618C1.2973 9.78358 1.2973 10.0965 1.14087 10.1747C1.37552 9.8618 1.68839 9.70536 1.84483 9.39249C2.23592 9.00141 2.70522 8.61032 3.25274 8.37567C3.64383 8.14101 4.19136 7.98458 4.50423 7.59349C4.50423 7.35884 4.66066 7.2024 4.73888 7.04597C4.8171 7.04597 4.8171 6.96775 4.8171 6.96775C5.12997 6.81131 5.44284 6.65488 5.75571 6.65488C5.91214 6.49844 6.22501 6.65488 6.30323 6.42023C6.69432 5.95092 6.85075 5.32518 7.24184 4.77766C7.32006 4.62122 7.47649 4.38657 7.71115 4.30835C8.25867 4.38657 8.88441 4.46478 9.43194 4.62122Z" fill="white"/>
<path d="M9.69712 8.14877C9.6189 8.22699 9.38425 8.22699 9.38425 8.38343C9.22782 8.38343 9.07138 8.53986 8.99316 8.53986C8.99316 8.38343 9.22782 8.46164 9.22782 8.30521L9.38425 8.14877V8.22699C9.46247 8.14877 9.6189 8.22699 9.54069 8.07056L9.69712 8.14877Z" fill="white"/>
<path d="M9.07132 8.22705C9.07132 8.30527 8.99311 8.38349 8.83667 8.38349C8.91489 8.30527 8.99311 8.30527 9.07132 8.22705Z" fill="white"/>
<path d="M9.38422 8.69629C9.38422 8.77451 9.306 8.77451 9.306 8.77451H9.22778C9.22778 8.77451 9.306 8.69629 9.38422 8.69629Z" fill="white"/>
<path d="M52.0261 13.4262H54.8419V5.29153H56.8756V16.0856H54.8419V15.3816H47.1766V16.0856H45.0647V5.21331H47.0984V13.4262H49.9142V3.41431H52.0261V13.4262Z" fill="#00A19B"/>
<path d="M33.418 13.911V10.313H37.72V8.35755H33.418V5.54171H38.0329V3.50806H26.7695V5.54171H31.3062V8.35755H27.0824V10.313H31.3062V13.911H26.1438V15.9447H38.5804V13.9892H33.418V13.911Z" fill="#00A19B"/>
<path d="M35.3735 10.9386C34.7477 11.1733 34.3566 11.799 34.5913 12.503C34.6695 12.6594 34.7477 12.8159 34.8259 12.8941C35.2953 13.4416 35.9992 13.5198 36.5467 13.0505C36.7032 12.8941 36.8596 12.6594 36.9378 12.4248C37.016 12.1119 36.9378 11.7208 36.7814 11.408C36.4685 11.0169 35.8428 10.7822 35.3735 10.9386Z" fill="#00A19B"/>
<path d="M67.5252 10.9399L67.092 12.927L68.3149 13.1936L68.748 11.2065L67.5252 10.9399Z" fill="#00A19B"/>
<path d="M74.1107 12.8943C75.5968 11.7992 75.9097 11.6428 75.9097 11.6428C75.9097 11.6428 74.7364 10.4695 74.6582 10.4695C74.58 10.4695 73.6413 11.0953 73.2503 11.4081C73.0938 10.9388 73.0156 10.5477 73.0156 10.0784H75.1275V3.58637H69.1047V13.9111C68.8701 13.9111 68.7136 13.9893 68.5572 13.9893L68.479 13.2071L66.8364 13.52V10.5477H68.6354V8.98338H66.8364V8.35764H68.1661V7.57546C68.2443 7.65368 68.3226 7.65368 68.3226 7.65368L69.1047 5.69824C68.0879 5.22894 67.3839 4.44676 66.9146 3.42993H65.2721C64.8028 4.52498 64.0206 5.46359 62.9255 6.08933L63.7859 7.96655C63.7859 7.96655 63.9424 7.81012 64.177 7.65368V8.27942H65.2721V8.90516H63.2384V10.5477H65.1938V13.8329L63.1602 14.224L63.2384 16.023L68.3226 15.0844V16.023L72.3899 15.319L72.3116 13.6764C72.9374 14.6933 73.7978 15.5537 74.8928 16.023L75.7532 14.3022C75.2057 13.9111 74.58 13.4418 74.1107 12.8943ZM65.1156 6.71507C65.5067 6.32398 65.8196 5.9329 66.1325 5.46359C66.4453 5.9329 66.7582 6.32398 67.2275 6.71507H65.1156ZM70.9037 5.38537H73.4067V6.24577H70.9037V5.38537ZM70.9037 13.6764V10.0784H71.4513C71.4513 11.2517 71.6859 12.425 72.3116 13.4418C71.9988 13.4418 71.5295 13.52 70.9037 13.6764ZM70.9037 8.59229V7.7319H73.4067V8.59229H70.9037Z" fill="#00A19B"/>
<path d="M64.803 13.2856L64.4901 11.0955L63.1604 11.3301L63.4733 13.5202L64.803 13.2856Z" fill="#00A19B"/>
<path d="M93.4523 3.53955H86.3345V5.41677H93.4523V3.53955Z" fill="#00A19B"/>
<path d="M94 7.60692H85.7089L84.301 6.59009C83.5188 7.91979 82.4238 9.17127 81.2505 10.1881L82.1109 12.3C82.1109 12.3 82.502 11.9871 83.0495 11.4396V15.9762H85.0049V9.09305C85.2396 8.78018 85.4742 8.46731 85.7089 8.07622V9.48414H90.0891V13.7079C90.0891 13.8643 89.9326 13.9425 89.8544 13.9425H87.5861L88.3683 15.8198H90.7148C91.497 15.8198 92.1227 15.194 92.1227 14.4118V9.48414H94V7.60692Z" fill="#00A19B"/>
<path d="M85.709 4.4781C85.1615 4.08702 84.614 3.69593 84.0665 3.38306C83.2843 4.39989 82.4239 5.26028 81.3289 5.96424L82.2675 7.84146C83.5972 6.82463 84.7704 5.72958 85.709 4.4781Z" fill="#00A19B"/>
</svg>
