<svg width="100" height="15" viewBox="0 0 100 15" fill="none" xmlns="http://www.w3.org/2000/svg">
<path d="M17.3422 5.67586H0V0H17.3422V5.67586Z" fill="#00A041"/>
<path d="M17.3422 12.6124H0V6.93652H17.3422V12.6124Z" fill="#008CD6"/>
<path d="M23.7646 0.44751V12.1662H26.1935V7.04232H31.2457V4.77828H26.1935V2.70874H31.3315V0.44751H23.7646Z" fill="#008CD6"/>
<path d="M38.3925 10.4856V6.67166C38.3925 5.41544 37.7302 3.82129 34.925 3.82129C33.8212 3.82129 32.9237 4.06305 32.3181 4.30298V6.38082C33.0105 5.95567 33.7776 5.72949 34.6144 5.72949C35.3712 5.72949 36.1269 5.98336 36.1269 6.85604V6.91076C35.7552 6.78209 35.2815 6.69487 34.7899 6.69487C32.8793 6.69487 31.4722 7.67866 31.4722 9.6056C31.4722 11.501 33.0509 12.217 34.3153 12.217C35.1059 12.217 35.7861 11.9688 36.2278 11.6188C36.2722 11.8623 36.3364 12.0645 36.4108 12.1663H38.9064C38.6075 11.9287 38.3925 11.4511 38.3925 10.4856ZM33.7496 9.35654C33.7496 8.7087 34.3157 8.27244 35.1253 8.27244C35.5375 8.27244 35.8687 8.36331 36.1273 8.49944V9.89743C35.8981 10.1006 35.5017 10.3385 34.9235 10.3385C34.174 10.3385 33.7496 9.92148 33.7496 9.35654Z" fill="#008CD6"/>
<path d="M87.6688 10.4856V6.67166C87.6688 5.41544 87.0084 3.82129 84.2024 3.82129C83.0976 3.82129 82.1993 4.06305 81.5935 4.30298V6.38082C82.289 5.95567 83.0569 5.72949 83.8949 5.72949C84.6486 5.72949 85.4037 5.98336 85.4037 6.85604V6.91076C85.0298 6.78209 84.5562 6.69487 84.0675 6.69487C82.1561 6.69487 80.752 7.67866 80.752 9.6056C80.752 11.501 82.3286 12.217 83.5927 12.217C84.3838 12.217 85.0629 11.9688 85.5033 11.6188C85.5496 11.8623 85.6146 12.0645 85.6856 12.1663H88.184C87.8858 11.9287 87.6688 11.4511 87.6688 10.4856ZM83.0268 9.35654C83.0268 8.7087 83.5927 8.27244 84.4015 8.27244C84.8146 8.27244 85.146 8.36331 85.4037 8.49944V9.89743C85.1715 10.1006 84.7827 10.3385 84.1985 10.3385C83.4514 10.3385 83.0268 9.92148 83.0268 9.35654Z" fill="#008CD6"/>
<path d="M48.4658 3.90381C47.4807 3.90381 46.7599 4.13612 46.0834 4.84216C45.606 4.25302 44.8539 3.90381 43.9465 3.90381C43.2011 3.90381 42.5056 4.11589 41.8724 4.65877V3.98439H39.7524V12.1662H42.0329V6.65137C42.3073 6.31891 42.6961 6.03719 43.234 6.03719C43.9208 6.03719 44.3113 6.49849 44.3113 7.33238V12.1662H46.6353V6.593C46.8986 6.26784 47.2814 6.03719 47.8193 6.03719C48.5609 6.03719 48.8977 6.55321 48.8977 7.33238V12.1662H51.2215V6.49849C51.2217 4.96271 50.2197 3.90381 48.4658 3.90381Z" fill="#008CD6"/>
<path d="M56.5723 12.1652H58.849V0.44751H56.5723V12.1652Z" fill="#008CD6"/>
<path d="M74.2358 4.08815L71.2193 0.44751H68.7256V12.1662H71.2193V4.08815L74.2358 8.00853L77.2512 4.08815V12.1662H79.7458V0.44751H77.2512L74.2358 4.08815Z" fill="#008CD6"/>
<path d="M52.7256 12.1652H55.0062V3.98438H52.7256V12.1652Z" fill="#008CD6"/>
<path d="M53.8656 0.267578C53.0485 0.267578 52.3843 0.916911 52.3843 1.72195C52.3843 2.52234 53.0485 3.17283 53.8656 3.17283C54.6828 3.17283 55.3441 2.5225 55.3441 1.72195C55.3441 0.916911 54.6828 0.267578 53.8656 0.267578Z" fill="#008CD6"/>
<path d="M91.1105 4.84212V3.98436H88.9292V12.1652H91.2096V7.02558C91.5391 6.60972 92.075 6.23647 92.8475 6.23647C93.4448 6.23647 93.8809 6.46529 94.13 6.64404V4.18168C93.8496 3.98436 93.3967 3.88355 93.0221 3.88355C92.3733 3.88338 91.6617 4.12597 91.1105 4.84212Z" fill="#008CD6"/>
<path d="M99.0251 10.0764C98.3014 10.0764 98.028 9.52704 98.028 8.91933V6.12716H99.9695V3.98449H98.028V0.89502L95.7788 1.83436V3.98449H94.551V6.12716H95.7788V9.24731C95.7788 10.9453 96.4702 12.2569 98.5054 12.2569C99.1112 12.2569 99.6452 12.1662 100 12.026V9.76432C99.8317 9.9512 99.5169 10.0764 99.0251 10.0764Z" fill="#008CD6"/>
<path d="M61.6013 14.2857H64.1639L68.0079 3.98438H65.5094L63.9272 8.40319L62.2069 3.98438H59.6047L62.744 11.403L61.6013 14.2857Z" fill="#008CD6"/>
</svg>
