<svg width="82" height="28" viewBox="0 0 82 28" fill="none" xmlns="http://www.w3.org/2000/svg">
<path d="M25.8539 0.294289C24.9888 0.100316 24.1049 0.00210683 23.2183 0.00143462C20.7429 -0.0394335 18.3332 0.797914 16.4166 2.3649C14.5016 0.797887 12.0931 -0.0395285 9.61907 0.00143462C8.71675 0.00218467 7.81739 0.104573 6.938 0.306664C4.38068 0.950119 1.87285 2.93823 0.845795 5.14908C-2.42098 12.1611 4.59516 18.7276 7.96918 21.8748C10.2832 24.0471 12.8203 25.9688 15.538 27.6082L15.9959 27.8845C16.1208 27.9587 16.2631 27.9985 16.4083 28C16.5538 27.9997 16.6964 27.9598 16.8208 27.8845L17.2787 27.6082C19.9977 25.9689 22.5361 24.0471 24.8516 21.8748C28.2422 18.7276 35.2542 12.1735 31.9915 5.14908C30.9645 2.93823 28.4484 0.945994 25.8539 0.294289Z" fill="white"/>
<path d="M81.1871 7.01339H75.825C75.7635 6.86132 75.658 6.73105 75.5221 6.63921C75.3862 6.54737 75.226 6.49814 75.0619 6.4978H72.6572C72.4939 6.49895 72.3346 6.54856 72.1995 6.64035C72.0644 6.73214 71.9595 6.86197 71.8983 7.01339H66.3382C66.229 7.01415 66.121 7.03659 66.0206 7.07939C65.969 6.91235 65.8657 6.76602 65.7256 6.66149C65.5855 6.55696 65.4158 6.49964 65.241 6.4978H50.9282C50.7094 6.4978 50.4996 6.58472 50.3449 6.73942C50.1902 6.89413 50.1033 7.10396 50.1033 7.32275C50.0173 7.29149 49.9267 7.27476 49.8352 7.27325H48.54C48.5205 7.06831 48.425 6.8781 48.2724 6.73996C48.1197 6.60182 47.9209 6.52575 47.7151 6.52668H45.3269C45.121 6.52575 44.9222 6.60182 44.7696 6.73996C44.617 6.8781 44.5215 7.06831 44.5019 7.27325H39.841C39.8244 7.06609 39.7302 6.87285 39.5772 6.73214C39.4243 6.59143 39.2239 6.51364 39.0161 6.5143H36.6361C36.4283 6.51364 36.2279 6.59143 36.0749 6.73214C35.922 6.87285 35.8278 7.06609 35.8112 7.27325H34.8501C34.6313 7.27325 34.4215 7.36016 34.2668 7.51487C34.1121 7.66958 34.0251 7.8794 34.0251 8.09819V9.61196C34.0264 9.73864 34.0569 9.86331 34.1141 9.97633C34.1713 10.0893 34.2538 10.1877 34.3551 10.2637C34.2532 10.3401 34.1704 10.4391 34.1132 10.5529C34.0559 10.6666 34.0258 10.7921 34.0251 10.9195V12.1775C34.0251 12.3963 34.1121 12.6062 34.2668 12.7609C34.4215 12.9156 34.6313 13.0025 34.8501 13.0025H35.5843L34.1448 15.5351C34.0724 15.6604 34.0343 15.8026 34.0342 15.9473C34.0342 16.0921 34.0722 16.2342 34.1446 16.3596C34.2169 16.485 34.3209 16.5892 34.4462 16.6616C34.5715 16.7341 34.7136 16.7723 34.8583 16.7725H36.5948L34.1901 20.0269C34.1029 20.1494 34.0508 20.2935 34.0395 20.4435C34.0282 20.5936 34.0581 20.7438 34.1261 20.8781C34.1941 21.0123 34.2975 21.1254 34.4251 21.2051C34.5527 21.2848 34.6996 21.3281 34.8501 21.3303H37.7374C37.8648 21.3296 37.9903 21.2995 38.104 21.2423C38.2178 21.185 38.3168 21.1022 38.3932 21.0003L39.8163 19.0576V19.2555C39.8163 19.5421 39.8727 19.8258 39.9823 20.0906C40.092 20.3553 40.2527 20.5958 40.4553 20.7984C40.658 21.0011 40.8985 21.1618 41.1632 21.2714C41.4279 21.3811 41.7117 21.4375 41.9982 21.4375C42.2848 21.4375 42.5685 21.3811 42.8332 21.2714C43.098 21.1618 43.3385 21.0011 43.5411 20.7984C43.7437 20.5958 43.9045 20.3553 44.0141 20.0906C44.1238 19.8258 44.1802 19.5421 44.1802 19.2555V19.0658L45.595 20.9673C45.6714 21.0692 45.7704 21.152 45.8842 21.2093C45.9979 21.2665 46.1234 21.2966 46.2508 21.2973H49.8434C49.9989 21.2968 50.1511 21.2525 50.2825 21.1693C50.4139 21.0861 50.519 20.9674 50.5859 20.8271C50.6179 20.7576 50.6401 20.684 50.6519 20.6085C50.834 20.8227 51.0602 20.9952 51.315 21.114C51.5699 21.2329 51.8473 21.2954 52.1285 21.2973C52.4257 21.3052 52.7207 21.2445 52.9906 21.1199C53.089 21.1646 53.196 21.1871 53.3041 21.1859H54.7354C54.8451 21.1344 54.9647 21.1077 55.0859 21.1077C55.2071 21.1077 55.3268 21.1344 55.4365 21.1859H56.872C56.9881 21.1841 57.1024 21.1559 57.2061 21.1034C57.4879 21.2543 57.802 21.3349 58.1217 21.3385C58.4434 21.3378 58.7602 21.26 59.0457 21.1117C59.1461 21.1545 59.2541 21.1769 59.3633 21.1777H60.7863C60.896 21.1262 61.0157 21.0995 61.1369 21.0995C61.2581 21.0995 61.3778 21.1262 61.4875 21.1777H62.927C63.0116 21.1773 63.0954 21.162 63.1745 21.1323C63.4432 21.2727 63.7417 21.3463 64.0448 21.3468C64.4014 21.3429 64.7503 21.2432 65.0551 21.0582C65.3599 20.8731 65.6093 20.6095 65.7772 20.295C65.9471 20.6438 66.2107 20.9385 66.5385 21.1461C66.8663 21.3537 67.2453 21.4661 67.6333 21.4705H79.8879C80.4597 21.4575 81.003 21.2184 81.3989 20.8056C81.7947 20.3927 82.0108 19.8398 81.9997 19.2679V15.0978C81.9997 14.879 81.9128 14.6692 81.7581 14.5145C81.6034 14.3598 81.3936 14.2729 81.1748 14.2729H80.8489C81.1914 14.1092 81.4804 13.8519 81.6827 13.5307C81.8849 13.2095 81.9919 12.8376 81.9915 12.458C81.9936 12.4251 81.9936 12.392 81.9915 12.359V7.82184C81.9873 7.60944 81.9013 7.40685 81.7515 7.25625C81.6017 7.10565 81.3995 7.01866 81.1871 7.01339ZM68.4913 14.1409C68.508 14.1886 68.5273 14.2355 68.549 14.2811H68.252C68.3348 14.2398 68.4148 14.193 68.4913 14.1409ZM60.5966 9.71508L60.9389 10.1276H60.1923V9.71508H60.5966ZM50.1033 14.9328L48.6555 13.0066H49.8352C49.9267 13.0051 50.0173 12.9884 50.1033 12.9571V14.9328ZM47.7893 16.7601H49.8517C49.9432 16.7586 50.0338 16.7419 50.1198 16.7106V19.1524C50.1137 19.2059 50.1137 19.2598 50.1198 19.3133C50.1258 19.4116 50.1382 19.5094 50.1569 19.6061L47.7893 16.7601ZM50.4003 10.3379L50.3219 10.2719C50.4164 10.2016 50.4948 10.1118 50.5517 10.0086C50.6086 9.90547 50.6428 9.79131 50.6519 9.67383C50.7379 9.70509 50.8285 9.72182 50.92 9.72333H51.1675C51.0742 9.84226 51.017 9.98539 51.0025 10.1358H50.9282C50.7374 10.136 50.5529 10.2048 50.4085 10.3297L50.4003 10.3379ZM55.3046 10.1482L55.6428 9.7357H56.0553V10.1482H55.3046ZM65.241 10.1482C65.226 9.9986 65.1703 9.85597 65.0801 9.7357H65.2492C65.3452 9.73507 65.4403 9.71689 65.5297 9.68208V10.1894C65.4396 10.1574 65.3448 10.1407 65.2492 10.1399L65.241 10.1482ZM66.0659 14.343V13.8315C66.2356 14.019 66.4402 14.1717 66.6681 14.2811H66.3506C66.2519 14.2816 66.1541 14.2998 66.0618 14.3348L66.0659 14.343ZM79.0093 14.2894C79.0093 14.244 79.0505 14.2069 79.067 14.1615C79.1375 14.2081 79.2105 14.2508 79.2857 14.2894H79.0093Z" fill="white"/>
<path d="M31.2492 5.49555C30.317 3.49506 28.0278 1.68431 25.6767 1.09448C24.8645 0.911346 24.0345 0.818663 23.2019 0.818122C21.9489 0.789653 20.7027 1.00974 19.5352 1.46567C18.3678 1.9216 17.3023 2.60434 16.4002 3.47444C15.4987 2.60484 14.4338 1.92239 13.2671 1.46647C12.1004 1.01056 10.855 0.790201 9.60269 0.818122C8.76994 0.820219 7.93996 0.914283 7.12786 1.0986C4.78915 1.68431 2.50406 3.49506 1.576 5.49555C-1.43917 11.9796 5.28824 18.2822 8.51376 21.2767C10.7853 23.4074 13.2737 25.2944 15.9383 26.9069L16.3961 27.1833L16.8539 26.9069C19.5193 25.2956 22.0078 23.4085 24.2784 21.2767C27.5411 18.2615 34.2644 11.9796 31.2492 5.49555ZM24.1382 21.0911C21.877 23.2103 19.3996 25.0863 16.7467 26.6883L16.4167 26.8863L16.0909 26.6883C13.4374 25.0873 10.9599 23.2112 8.69937 21.0911C5.51097 18.1172 -1.12157 11.9219 1.81935 5.60279C2.71854 3.66418 4.93351 1.9153 7.20211 1.34609C7.99522 1.166 8.80589 1.0747 9.61919 1.07385C10.8808 1.04632 12.1348 1.2773 13.3038 1.75257C14.4728 2.22784 15.5322 2.93735 16.4167 3.83741C17.302 2.93723 18.3621 2.22768 19.5318 1.75243C20.7015 1.27717 21.9561 1.04624 23.2184 1.07385C24.026 1.07466 24.8311 1.16458 25.619 1.34196C27.9041 1.9153 30.119 3.66418 31.0182 5.60279C33.955 11.9177 27.3266 18.1172 24.1382 21.0911Z" fill="#C91E1D"/>
<path d="M16.4168 26.1439C13.8017 24.5666 11.3602 22.7181 9.13252 20.6291C5.37491 17.119 -0.218204 11.4846 2.39274 5.85851C3.24243 4.03539 5.30891 2.46387 7.3424 1.94828C10.7412 1.18521 14.3544 2.15864 16.4168 4.79846C18.4791 2.15864 22.0841 1.18521 25.4911 1.94828C27.5535 2.46387 29.6159 4.03539 30.4408 5.85851C33.0517 11.4722 27.4628 17.1066 23.7051 20.6167C21.4759 22.7092 19.033 24.5617 16.4168 26.1439Z" fill="#C91E1D"/>
<path d="M27.6068 13.7862C27.749 13.5385 27.8383 13.2639 27.8688 12.9799C27.8993 12.6959 27.8705 12.4086 27.7842 12.1363C27.616 11.7086 27.332 11.3363 26.9641 11.0609C26.5962 10.7855 26.1589 10.618 25.7012 10.5772C25.2037 10.5295 24.7026 10.6198 24.253 10.8381C23.8034 11.0563 23.4225 11.3942 23.1521 11.8146C23.0379 12.0309 22.9519 12.261 22.8964 12.4993C22.7933 12.4745 22.6737 12.4993 22.5994 12.4745V10.3709L22.6448 10.3297H23.3914C23.544 10.3216 23.6927 10.2783 23.8258 10.2032C23.9589 10.128 24.0728 10.0231 24.1586 9.89658C24.2302 9.76644 24.2599 9.61739 24.2436 9.46976C24.2274 9.32213 24.166 9.1831 24.0678 9.07163C23.7379 8.61379 23.0779 8.80353 22.5417 8.76228C22.1292 8.80353 21.6384 8.69628 21.2795 8.86952C21.1448 8.93174 21.0302 9.03036 20.9486 9.15426C20.8669 9.27816 20.8216 9.42241 20.8176 9.57072V12.458C20.6649 12.5405 20.4587 12.4828 20.2607 12.4993C20.2195 12.0126 20.4257 11.5135 20.0669 11.134C19.9571 11.0148 19.8168 10.928 19.6612 10.8829C19.5056 10.8378 19.3406 10.8362 19.1842 10.8783C19.0446 10.92 18.9171 10.9946 18.8123 11.0958C18.7076 11.197 18.6286 11.3218 18.582 11.4598C18.5531 12.623 18.5531 13.7944 18.582 14.9452C18.5872 15.0829 18.6237 15.2176 18.6887 15.3391C18.7538 15.4606 18.8456 15.5657 18.9573 15.6464C19.0875 15.7225 19.2355 15.7627 19.3863 15.7627C19.5371 15.7627 19.6851 15.7225 19.8153 15.6464C20.4422 15.3495 20.2277 14.7019 20.2772 14.1327V14.1079H20.8176V14.2152L20.8464 18.0511C20.8304 18.1796 20.8449 18.3099 20.8886 18.4318C20.9323 18.5536 21.004 18.6634 21.098 18.7523C21.2091 18.8502 21.3416 18.9207 21.4849 18.9579C21.6282 18.9952 21.7783 18.9982 21.923 18.9668C22.0884 18.9362 22.241 18.8571 22.3614 18.7396C22.4818 18.6221 22.5647 18.4715 22.5994 18.3069V14.5534V14.079H22.8799C22.9583 14.1739 22.9583 14.3224 23.016 14.4461C23.2067 14.8661 23.5092 15.2256 23.8904 15.4853C24.2715 15.745 24.7168 15.8949 25.1774 15.9187C25.8332 15.8609 26.6747 16.1455 27.1243 15.6464C27.2192 15.5341 27.2842 15.3995 27.313 15.2552C27.3419 15.111 27.3337 14.9617 27.2892 14.8215C27.2196 14.6927 27.1198 14.5826 26.9985 14.5008C26.8771 14.4189 26.7377 14.3676 26.5922 14.3513H25.0743C24.9572 14.2842 24.8559 14.1928 24.7773 14.0832H25.9652C26.5262 14.0172 27.2439 14.2605 27.6068 13.7862ZM24.7195 12.4621C24.7195 12.3962 24.8392 12.3013 24.901 12.2477C25.0098 12.1691 25.1351 12.1164 25.2673 12.0935C25.3995 12.0706 25.5352 12.0782 25.6641 12.1157C25.7548 12.1399 25.8398 12.182 25.9141 12.2393C25.9885 12.2967 26.0507 12.3682 26.0972 12.4498L24.7195 12.4621Z" fill="white"/>
<path d="M19.3576 10.602C19.5444 10.5999 19.728 10.5531 19.893 10.4656C20.058 10.378 20.1998 10.2523 20.3063 10.0988C20.4096 9.9606 20.4702 9.79511 20.4804 9.62283C20.4907 9.45055 20.4502 9.27904 20.364 9.12952C20.2158 8.89099 19.9878 8.71271 19.7206 8.62631C19.5281 8.56903 19.3239 8.56405 19.1289 8.6119C18.9339 8.65975 18.7551 8.75869 18.611 8.89854C18.4691 9.03797 18.3742 9.21817 18.3394 9.41408C18.3047 9.60999 18.3319 9.81185 18.4172 9.99159C18.5038 10.1691 18.6371 10.3196 18.8028 10.4272C18.9684 10.5347 19.1602 10.5951 19.3576 10.602Z" fill="white"/>
<path d="M16.99 14.1903C16.9446 12.9529 16.99 11.7155 16.9446 10.5028C16.9385 10.3445 16.887 10.1913 16.7961 10.0615C16.6688 9.9063 16.4928 9.79863 16.2967 9.75596C16.1005 9.71329 15.8957 9.7381 15.7155 9.82639C15.5726 9.88154 15.4495 9.97818 15.362 10.1039C15.2745 10.2296 15.2267 10.3786 15.2246 10.5317V14.6234L15.2659 15.205C15.3133 15.3473 15.3987 15.474 15.5128 15.5714C15.6269 15.6688 15.7654 15.7332 15.9134 15.7577C16.4716 15.8133 17.034 15.8133 17.5922 15.7577C17.7129 15.7328 17.8271 15.6833 17.9279 15.6123C18.0287 15.5414 18.1138 15.4505 18.1779 15.3453C18.2473 15.1949 18.2698 15.0272 18.2426 14.8639C18.2154 14.7006 18.1397 14.5493 18.0253 14.4296C17.7696 14.1491 17.353 14.1903 16.99 14.1903Z" fill="white"/>
<path d="M14.5771 13.6376H13.6036C13.484 13.6376 13.319 13.6088 13.2283 13.6624C12.721 13.8645 12.9849 14.4172 12.9313 14.7843C13.1829 15.2958 13.8305 15.0277 14.3255 15.0813C14.4215 15.0943 14.5193 15.0813 14.6085 15.0436C14.6978 15.0058 14.7752 14.9448 14.8328 14.8668C14.9224 14.5747 14.9532 14.2676 14.9235 13.9635C14.9 13.8833 14.8554 13.8108 14.7945 13.7535C14.7336 13.6963 14.6586 13.6563 14.5771 13.6376Z" fill="white"/>
<path d="M12.5107 11.394C12.4353 11.2264 12.302 11.0917 12.1353 11.0145C11.8735 10.9005 11.5776 10.8931 11.3104 10.9939C11.1734 11.0498 11.0546 11.1427 10.9672 11.2621C10.8799 11.3815 10.8273 11.5228 10.8154 11.6703V14.7845C10.7878 14.9242 10.7969 15.0687 10.8417 15.2038C10.8865 15.339 10.9656 15.4603 11.0711 15.5558C11.1884 15.6531 11.3259 15.7229 11.4737 15.76C11.6215 15.7972 11.7757 15.8007 11.925 15.7703C12.0917 15.744 12.2451 15.6635 12.3614 15.5412C12.4778 15.4189 12.5505 15.2617 12.5684 15.0938V12.619C12.5949 12.2098 12.5755 11.7989 12.5107 11.394Z" fill="white"/>
<path d="M11.7185 10.5855C12.2085 10.2488 12.6369 9.83018 12.9848 9.34805C13.3189 8.75409 13.9046 8.11064 13.5416 7.38056C13.4582 7.24776 13.3466 7.13494 13.2147 7.05011C13.0829 6.96528 12.9339 6.91052 12.7785 6.88972C12.5762 6.85806 12.3691 6.87943 12.1776 6.95172C11.986 7.02402 11.8164 7.14477 11.6855 7.30219C11.55 7.17607 11.3989 7.06794 11.2359 6.98046C11.0398 6.90391 10.828 6.8763 10.6189 6.90001C10.4097 6.92373 10.2095 6.99806 10.0356 7.11658C9.87881 7.23391 9.76163 7.39632 9.69971 7.58208C9.63779 7.76784 9.63409 7.96809 9.6891 8.15601C10.0626 9.17707 10.7802 10.0361 11.7185 10.5855Z" fill="white"/>
<path d="M10.0933 10.0988C9.98155 9.9589 9.83188 9.85419 9.66218 9.79714C9.49249 9.74008 9.30994 9.7331 9.13639 9.77703C8.97807 9.80467 8.83128 9.87794 8.71404 9.98786C8.5968 10.0978 8.51422 10.2395 8.47643 10.3957V12.1364L8.44756 12.1817H7.65149L7.61849 11.2207C7.57312 10.7381 7.73811 10.0864 7.11116 9.85953C6.9852 9.80632 6.84985 9.77891 6.71312 9.77891C6.57638 9.77891 6.44104 9.80632 6.31508 9.85953C5.7005 10.1441 5.90261 10.8165 5.86549 11.3444V14.6648C5.86549 15.0402 5.83662 15.4609 6.25734 15.7042C6.38678 15.7759 6.53054 15.8179 6.67821 15.8272C6.82588 15.8364 6.97376 15.8128 7.11116 15.7579C7.23424 15.7057 7.34387 15.6262 7.43176 15.5255C7.51964 15.4247 7.58349 15.3053 7.61849 15.1763V13.745H8.41456H8.44344V15.0402C8.44598 15.1567 8.47564 15.2711 8.53005 15.3742C8.58446 15.4773 8.66213 15.5663 8.75691 15.6341C8.87797 15.7235 9.01868 15.7824 9.16725 15.8061C9.31582 15.8298 9.4679 15.8175 9.61072 15.7702C9.7592 15.724 9.89222 15.6381 9.99544 15.5218C10.0987 15.4055 10.1682 15.2632 10.1964 15.1103V10.9856C10.1964 10.6968 10.2748 10.371 10.0933 10.0988Z" fill="white"/>
<path d="M40.6164 10.9197H34.8418V12.1777H40.6164V19.231C40.6164 19.231 40.6164 19.2557 40.6164 19.2681C40.6018 19.4563 40.6262 19.6455 40.6882 19.8238C40.7501 20.0022 40.8483 20.1657 40.9765 20.3043C41.1047 20.4429 41.2602 20.5534 41.4332 20.6291C41.6061 20.7047 41.7929 20.7437 41.9817 20.7437C42.1705 20.7437 42.3572 20.7047 42.5302 20.6291C42.7032 20.5534 42.8586 20.4429 42.9868 20.3043C43.115 20.1657 43.2132 20.0022 43.2752 19.8238C43.3372 19.6455 43.3616 19.4563 43.347 19.2681V12.1777H49.831V10.9197H43.3635V10.2515H40.6164V10.9197Z" fill="#C91E1D"/>
<path d="M36.6442 8.07755H34.8665V9.61194H36.6896C36.75 9.87016 36.896 10.1004 37.1038 10.2651C37.3116 10.4299 37.569 10.5196 37.8342 10.5196C38.0994 10.5196 38.3568 10.4299 38.5646 10.2651C38.7724 10.1004 38.9184 9.87016 38.9788 9.61194H45.3969C45.4612 9.86771 45.6079 10.0952 45.8144 10.2592C46.0209 10.4232 46.2757 10.5147 46.5394 10.5194C46.8039 10.5144 47.0596 10.423 47.2674 10.2592C47.4752 10.0953 47.6236 9.86804 47.6902 9.61194H49.8474V8.07755H47.7314V7.32685H45.3432V8.07755H39.0242V7.3186H36.6442V8.07755Z" fill="#C91E1D"/>
<path d="M76.2085 13.6005H71.3744C71.3249 13.5604 71.2853 13.5094 71.2588 13.4514C71.2323 13.3934 71.2197 13.3301 71.2218 13.2664V12.9488C71.2218 12.8394 71.2652 12.7345 71.3426 12.6572C71.4199 12.5798 71.5248 12.5363 71.6342 12.5363H75.9982C76.1018 12.5447 76.1984 12.5918 76.2687 12.6682C76.3391 12.7447 76.378 12.8449 76.3777 12.9488V13.2829C76.3775 13.3467 76.3633 13.4096 76.3363 13.4673C76.3092 13.525 76.2698 13.5761 76.2209 13.617L76.2085 13.6005ZM70.4669 14.574H77.0665C77.1434 14.5802 77.2206 14.5802 77.2975 14.574C77.5593 14.5683 77.8108 14.4704 78.0077 14.2977C78.2046 14.1249 78.3343 13.8883 78.374 13.6294V11.5505H69.1965V13.6418C69.2444 13.8977 69.377 14.1301 69.5731 14.3014C69.7691 14.4728 70.0172 14.5732 70.2772 14.5863C70.3407 14.5881 70.4042 14.584 70.4669 14.574Z" fill="#C91E1D"/>
<path d="M34.8748 15.9352L36.6401 12.8252H39.0242L40.6329 15.9352H38.3354L37.7579 14.8876L37.197 15.9352H34.8748Z" fill="#C91E1D"/>
<path d="M43.3633 15.9352L45.1245 12.8252H47.5086L49.8432 15.9352H47.3189L46.4486 14.8876L45.6896 15.9352H43.3633Z" fill="#C91E1D"/>
<path d="M40.6328 16.6033L37.7373 20.4929H34.8665L37.7373 16.6033H40.6328Z" fill="#C91E1D"/>
<path d="M43.3633 16.6033L46.2506 20.4929H49.8432L46.6053 16.6033H43.3633Z" fill="#C91E1D"/>
<path d="M59.3715 18.975V19.1524C59.3817 19.4933 59.2578 19.8246 59.0264 20.0753C58.7951 20.3259 58.4747 20.4758 58.1341 20.4929C57.9645 20.4871 57.7978 20.4477 57.6435 20.377C57.4893 20.3063 57.3506 20.2057 57.2355 20.081C57.1205 19.9563 57.0312 19.8101 56.9731 19.6507C56.9149 19.4913 56.8889 19.3219 56.8967 19.1524V19.0988V8.89424H55.2592L54.1867 10.2348H51.8068L52.838 8.89424H50.9282V7.3186H65.241V8.89424H63.4055L64.4408 10.2348H62.065L60.9967 8.89424H59.3756V18.975H59.3715ZM59.3715 17.1231L60.4728 18.7729L59.3715 20.328H60.7945L61.1534 19.8041L61.4957 20.328H62.9353L61.8463 18.7729L62.9353 17.1231H61.6277L61.1534 17.8201L60.6626 17.1437L59.3715 17.1231ZM59.3715 13.1138L60.4728 14.7637L59.3715 16.3187H60.7945L61.1534 15.7784L61.4957 16.3187H62.9353L61.8463 14.7637L62.9353 13.1138H61.6277L61.1534 13.7985L60.6626 13.1138H59.3715Z" fill="#C91E1D"/>
<path d="M53.3121 19.0576C53.3166 19.1139 53.3166 19.1705 53.3121 19.2267C53.3258 19.3911 53.3053 19.5564 53.2518 19.7124C53.1983 19.8684 53.1131 20.0116 53.0014 20.1329C52.8898 20.2543 52.7542 20.3511 52.6032 20.4174C52.4522 20.4836 52.2891 20.5179 52.1242 20.5179C51.9593 20.5179 51.7962 20.4836 51.6452 20.4174C51.4942 20.3511 51.3586 20.2543 51.2469 20.1329C51.1353 20.0116 51.05 19.8684 50.9966 19.7124C50.9431 19.5564 50.9225 19.3911 50.9363 19.2267V19.1484V12.5488V10.9402H65.249V12.5406V19.2309C65.2627 19.3952 65.2422 19.5606 65.1887 19.7165C65.1352 19.8725 65.05 20.0157 64.9383 20.1371C64.8267 20.2584 64.6911 20.3553 64.5401 20.4215C64.3891 20.4878 64.226 20.522 64.0611 20.522C63.8962 20.522 63.7331 20.4878 63.5821 20.4215C63.4311 20.3553 63.2955 20.2584 63.1839 20.1371C63.0722 20.0157 62.987 19.8725 62.9335 19.7165C62.88 19.5606 62.8595 19.3952 62.8732 19.2309C62.8732 19.1979 62.8732 19.1731 62.8732 19.1525V12.5529H53.3121V19.0576ZM53.3121 17.1273L54.4175 18.7771L53.3121 20.3528H54.7434L55.1063 19.8248L55.4652 20.3363H56.9006L55.8075 18.7771L56.9006 17.1273H55.6054L55.1063 17.8202L54.599 17.1231L53.3121 17.1273ZM53.3121 13.1222L54.4175 14.772L53.3121 16.3477H54.7434L55.1063 15.8156L55.4446 16.3312H56.88L55.7869 14.772L56.88 13.1222H55.5848L55.1063 13.8027L54.599 13.118L53.3121 13.1222Z" fill="#C91E1D"/>
<path d="M66.3382 7.83419H72.6696V7.3186H75.0743V7.83419H81.1871V12.3714V12.458C81.2005 12.6129 81.1815 12.7688 81.1313 12.9159C81.0812 13.0631 81.001 13.1982 80.896 13.3127C80.7909 13.4272 80.6631 13.5186 80.5208 13.5812C80.3785 13.6437 80.2248 13.676 80.0693 13.676C79.9139 13.676 79.7602 13.6437 79.6179 13.5812C79.4756 13.5186 79.3478 13.4272 79.2427 13.3127C79.1376 13.1982 79.0575 13.0631 79.0074 12.9159C78.9572 12.7688 78.9382 12.6129 78.9516 12.458C78.9434 12.4019 78.9434 12.345 78.9516 12.2889V9.40158H68.5573V12.3755C68.5573 12.4003 68.5573 12.425 68.5573 12.4497C68.5665 12.602 68.5445 12.7545 68.4927 12.8979C68.4408 13.0413 68.3601 13.1726 68.2556 13.2836C68.1511 13.3947 68.0249 13.4832 67.8849 13.5437C67.7449 13.6042 67.594 13.6354 67.4415 13.6354C67.289 13.6354 67.1381 13.6042 66.9981 13.5437C66.8581 13.4832 66.732 13.3947 66.6275 13.2836C66.523 13.1726 66.4423 13.0413 66.3904 12.8979C66.3385 12.7545 66.3165 12.602 66.3258 12.4497V9.37684V7.83419H66.3382Z" fill="#C91E1D"/>
<path d="M78.3614 9.97485H69.2004V10.9483H78.3614V9.97485Z" fill="#C91E1D"/>
<path d="M66.3462 15.0979H81.1952V17.7171V19.2556C81.2013 19.4317 81.1726 19.6072 81.1107 19.7722C81.0489 19.9371 80.9552 20.0883 80.8349 20.217C80.7146 20.3457 80.5701 20.4495 80.4097 20.5223C80.2493 20.5952 80.0761 20.6357 79.9 20.6415H67.6331C67.4571 20.6357 67.2839 20.5952 67.1235 20.5223C66.9631 20.4495 66.8186 20.3457 66.6983 20.217C66.578 20.0883 66.4843 19.9371 66.4225 19.7722C66.3606 19.6072 66.3319 19.4317 66.338 19.2556V16.4838C66.334 16.422 66.334 16.36 66.338 16.2982V15.0979H66.3462ZM75.3917 18.5049C75.2891 18.5044 75.19 18.5422 75.1137 18.6108C75.0375 18.6794 74.9895 18.774 74.9793 18.8761C74.9876 18.9797 75.0347 19.0763 75.1111 19.1467C75.1876 19.217 75.2878 19.2559 75.3917 19.2556H78.5636C78.6676 19.2559 78.7678 19.217 78.8442 19.1467C78.9207 19.0763 78.9678 18.9797 78.9761 18.8761C78.974 18.8245 78.9616 18.7737 78.9396 18.727C78.9176 18.6802 78.8865 18.6382 78.8481 18.6036C78.8097 18.569 78.7647 18.5425 78.7158 18.5255C78.667 18.5086 78.6152 18.5016 78.5636 18.5049H75.3917ZM75.3917 16.6364C75.2885 16.636 75.1888 16.6743 75.1125 16.7438C75.0361 16.8133 74.9886 16.9089 74.9793 17.0118C74.9876 17.1153 75.0347 17.212 75.1111 17.2823C75.1876 17.3527 75.2878 17.3916 75.3917 17.3912H78.5636C78.6676 17.3916 78.7678 17.3527 78.8442 17.2823C78.9207 17.212 78.9678 17.1153 78.9761 17.0118C78.9668 16.9089 78.9193 16.8133 78.8429 16.7438C78.7666 16.6743 78.6669 16.636 78.5636 16.6364H75.3917ZM68.8417 18.5049C68.7391 18.5044 68.64 18.5422 68.5637 18.6108C68.4874 18.6794 68.4395 18.774 68.4292 18.8761C68.4375 18.9797 68.4846 19.0763 68.5611 19.1467C68.6376 19.217 68.7378 19.2559 68.8417 19.2556H72.026C72.1334 19.2613 72.2388 19.2248 72.3197 19.154C72.4006 19.0831 72.4506 18.9834 72.4591 18.8761C72.4486 18.7704 72.3977 18.6728 72.317 18.6036C72.2363 18.5344 72.1321 18.4991 72.026 18.5049H68.8417ZM68.8417 16.6364C68.7384 16.636 68.6388 16.6743 68.5624 16.7438C68.486 16.8133 68.4385 16.9089 68.4292 17.0118C68.4375 17.1153 68.4846 17.212 68.5611 17.2823C68.6376 17.3527 68.7378 17.3916 68.8417 17.3912H72.026C72.0805 17.394 72.135 17.3859 72.1864 17.3675C72.2377 17.349 72.2849 17.3205 72.3252 17.2837C72.3655 17.2469 72.3981 17.2024 72.4211 17.1529C72.444 17.1034 72.457 17.0498 72.4591 16.9953C72.4496 16.8888 72.3991 16.7901 72.3184 16.7201C72.2376 16.6501 72.1327 16.6142 72.026 16.6199L68.8417 16.6364Z" fill="#C91E1D"/>
</svg>
