<svg width="96" height="27" viewBox="0 0 96 27" fill="none" xmlns="http://www.w3.org/2000/svg">
<path d="M28.0823 16.6429H29.8767V18.1682H28.0823V16.6429Z" fill="#9ED8F5"/>
<path d="M30.1458 18.3029H31.8953V19.8729H30.1458V18.3029Z" fill="#9ED8F5"/>
<path d="M31.8953 11.3944H33.6448V12.9196H31.8953V11.3944Z" fill="#9ED8F5"/>
<path d="M35.3943 7.94019H37.099V9.46542H35.3943V7.94019Z" fill="#9ED8F5"/>
<path d="M33.6448 6.19067H35.3494V7.71591H33.6448V6.19067Z" fill="#9ED8F5"/>
<path d="M39.5664 1.83925C39.5664 1.83925 38.5795 0.0448598 34.5421 0C34.5421 0 28.9346 0.269159 23.3272 4.84486C23.3272 4.84486 21.9814 5.83178 20.2767 7.49159C19.5141 8.20935 18.7515 8.9271 18.3029 9.55514H18.3477C17.3608 10.7215 16.329 12.0673 15.4318 13.5028H15.387L15.2973 13.7271C14.8038 14.5346 14.4449 15.3421 14.0412 16.2393C14.0412 16.2393 11.4842 21.9364 13.9515 25.1664C13.9515 25.1664 15.6113 27.4093 20.0075 26.8262C20.0075 26.8262 25.4804 26.1533 29.787 22.5196V20.1869H27.9926V18.4374H26.2431V16.329H27.9477V14.4449H29.787V11.3495H27.9926V9.33084H30.0561V11.0355H31.716V9.3757H33.5552V7.98505H31.716V5.87663H33.3758V4.3514H35.4393V5.87663H37.2786V7.76075H40.5982C40.5533 7.71589 41.63 4.03738 39.5664 1.83925Z" fill="#9ED8F5"/>
<path d="M85.4131 11.6185H84.6505L84.2019 10.6764H86.1308L87.6561 8.97174L90.0336 8.92688L87.6561 11.6185L84.4262 18.2129L82.228 18.168L85.4131 11.6185Z" fill="#034EA1"/>
<path d="M87.7459 9.151L86.2207 10.9005H84.516L84.7852 11.5286H85.7272L82.4973 18.0332H84.2917L87.5216 11.5286L89.63 9.151H87.7459Z" fill="#034EA1"/>
<path d="M89.4056 11.6183H88.5084L87.8355 10.6763H89.8542L90.5271 9.28563L92.8598 8.74731L92.0075 10.6763H92.6355L93.9365 9.10619H96L94.6542 10.6763H95.1926L95.8206 11.6183H91.5589L89.1365 17.0464L93.4879 17.0912L93.8916 18.123H86.4897L89.4056 11.6183Z" fill="#034EA1"/>
<path d="M95.5067 11.5289L95.103 10.9008H94.2506L95.5516 9.33074H94.0263L92.7254 10.9008H91.7385L92.5459 9.01672L90.6618 9.46532L89.9889 10.9008H88.1945L88.5983 11.5289H89.7198L86.759 17.9438H93.6226L93.3534 17.3158H88.8674L91.4245 11.5289H95.5067Z" fill="#034EA1"/>
<path d="M69.8916 18.1233L73.2112 11.6186H71.5514L70.9682 10.6765H73.7047L74.3776 9.33073L76.4411 8.79242L75.5439 10.6765H76.9346L77.6972 9.19615L79.8953 8.65784L78.9084 10.6765H80.4337L81.1963 9.19615L83.3944 8.65784L82.4075 10.6765H83.4841L84.0673 11.6186H81.914L79.5813 16.1943H74.1084L76.5309 11.6186H75.1851L72.4038 17.1363H80.5234L81.1066 18.1233H69.8916ZM77.9664 15.2522L79.8505 11.6186H78.3701L76.5309 15.2522H77.9664Z" fill="#034EA1"/>
<path d="M83.2598 10.811H82.0038L82.9458 8.92688L81.2411 9.33062L80.4785 10.811H78.5496L79.4916 8.92688L77.7869 9.33062L77.0243 10.811H75.2299L76.1271 9.06146L74.557 9.4652L73.8841 10.811H71.372L71.7309 11.439H73.5701L70.2505 17.9437H80.658L80.2991 17.3157H71.9552L74.9159 11.3942H76.7103L74.3327 16.0147H79.4019L81.7346 11.3942H83.7084L83.2598 10.811ZM78.0561 15.4764H76.2168L78.2355 11.4839H80.1645L78.0561 15.4764Z" fill="#034EA1"/>
<path d="M61.1887 18.1681V18.1232H61.1438L63.8354 13.5475H63.1177L59.4392 18.1232H54.6392L55.6261 17.1811H58.0036L60.8747 13.5475H58.0485L57.5102 12.6054H60.3364L58.7663 9.33067H60.9195L62.4896 12.6054H62.5794L64.2392 9.10637L67.0653 8.61292L64.9121 12.6054H65.2261L68.456 9.33067H70.7887L67.5588 12.6054H69.4878L69.9364 13.5475H65.899L63.8354 17.1811H67.9625L68.3663 18.2129L61.1887 18.1681Z" fill="#034EA1"/>
<path d="M69.6225 13.413L69.3533 12.7401H67.1103L70.2954 9.51018H68.501L65.3159 12.7401H64.5982L66.7066 8.83728L64.3739 9.24102L62.6692 12.7401H62.3552L60.7851 9.55504H59.0804L60.6505 12.7401H57.8243L58.1384 13.413H61.2337L58.0935 17.3158H55.7159L55.0879 17.9438H59.3496L63.0281 13.413H64.1496L61.5028 17.9438H68.0972L67.8281 17.3158H63.5215L65.8094 13.413H69.6225Z" fill="#034EA1"/>
<path d="M8.83738 9.42041V12.6503H3.45421V9.42041H0V17.8541H3.45421V14.2653H8.83738V17.8541H12.2916V9.42041H8.83738Z" fill="#004097"/>
<path d="M14.8936 11.6635V17.8541H18.2132V11.6635H14.8936Z" fill="#004097"/>
<path d="M29.6971 9.42041V14.5344L24.0896 9.42041H20.77V17.8541H24.0448L24.0896 12.8746L29.6074 17.8541H33.0167V9.42041H29.6971Z" fill="#004097"/>
<path d="M40.1943 17.9887C40.284 17.9887 40.284 17.9887 40.3289 17.9887C41.5401 17.9887 42.6167 17.8093 43.469 17.4953C44.2765 17.1813 44.8597 16.7775 45.2186 16.1495L45.3083 16.0598L45.0391 16.0149L42.213 15.7458L41.9438 15.7009L41.8541 15.7906C41.7644 16.0149 41.6298 16.1943 41.4503 16.3289C41.1812 16.4635 40.8223 16.5981 40.3289 16.5981C40.284 16.5981 40.2391 16.5981 40.1943 16.5532V17.9887ZM40.1943 15.342H45.1737H45.3532V15.2523C45.3532 14.1757 45.0391 13.3682 44.3214 12.7401C43.4242 11.9775 42.0335 11.5738 40.1943 11.5738V13.0093C40.1943 13.0093 40.1943 13.0093 40.2391 13.0093C40.8223 13.0093 41.2709 13.099 41.5849 13.2785C41.8989 13.5028 42.0784 13.7719 42.0784 14.1308H40.1943V15.342ZM40.0148 11.5289C40.0597 11.5289 40.1046 11.5289 40.1494 11.5289V12.9644C39.6111 12.9644 39.1176 13.0542 38.8036 13.3233C38.4896 13.5028 38.3102 13.7719 38.2653 14.1308H40.1494V15.342H38.2204C38.2653 15.656 38.4447 15.9701 38.7588 16.1495C39.1176 16.4186 39.5662 16.5532 40.1494 16.5532V17.9887C39.2971 17.9887 38.6242 17.899 37.9961 17.7644C36.8298 17.4953 36.0223 17.0915 35.484 16.4635C35.2597 16.1944 35.0354 15.9252 34.9457 15.6112C34.856 15.2972 34.856 15.028 34.856 14.8037C34.856 13.9065 35.2148 13.1439 36.0223 12.5607C37.0092 11.8878 38.355 11.5289 40.0148 11.5289Z" fill="#004097"/>
<path d="M52.7998 17.5848L52.5755 16.3736L52.5307 16.239L52.2615 16.2839H52.1269H52.0821C51.8578 16.3736 51.7232 16.3736 51.5886 16.3736C51.4989 16.3736 51.3195 16.4185 51.14 16.4185C50.6914 16.4185 50.6914 16.3288 50.6914 16.2839C50.6466 16.1045 50.6017 15.8353 50.6017 15.3867V13.1437H52.5307V11.6633H50.6017V9.37549H47.2372V11.6633H45.9363V13.1437H47.2372V15.611C47.2372 16.1045 47.2821 16.4633 47.3269 16.6876C47.3718 16.9119 47.5064 17.0914 47.6858 17.3157C47.9101 17.54 48.269 17.6746 48.8522 17.854C49.3008 17.9437 49.7942 17.9886 50.3325 17.9886C50.5568 17.9886 50.8709 17.9437 51.3643 17.8989C51.9026 17.8989 52.3512 17.8091 52.6653 17.7194L52.7998 17.6746V17.5848Z" fill="#004097"/>
<path d="M16.4636 11.125C17.4954 11.125 18.258 10.3175 18.258 9.33059C18.258 8.34367 17.4954 7.58105 16.4636 7.58105C15.5216 7.58105 14.7141 8.34367 14.7141 9.33059C14.759 10.3175 15.5216 11.125 16.4636 11.125Z" fill="#EC1C24"/>
</svg>
