<svg width="20" height="20" viewBox="0 0 20 20" fill="none" xmlns="http://www.w3.org/2000/svg">
<g clip-path="url(#clip0_5354_6592)">
<path d="M9.99992 19.1663C15.0624 19.1663 19.1666 15.0622 19.1666 9.99968C19.1666 4.93718 15.0624 0.833008 9.99992 0.833008M9.99992 19.1663C4.93742 19.1663 0.833252 15.0622 0.833252 9.99968C0.833252 4.93718 4.93742 0.833008 9.99992 0.833008M9.99992 19.1663C12.4999 19.1663 13.3333 14.9997 13.3333 9.99968C13.3333 4.99967 12.4999 0.833008 9.99992 0.833008M9.99992 19.1663C7.49992 19.1663 6.66659 14.9997 6.66659 9.99968C6.66659 4.99967 7.49992 0.833008 9.99992 0.833008M1.66659 13.333H18.3333M1.66659 6.66634H18.3333" stroke="#A5A5A5" stroke-width="1.5"/>
</g>
<defs>
<clipPath id="clip0_5354_6592">
<rect width="20" height="20" fill="white"/>
</clipPath>
</defs>
</svg>
