<svg width="44" height="44" viewBox="0 0 44 44" fill="none" xmlns="http://www.w3.org/2000/svg">
<g clip-path="url(#clip0_5370_6591)">
<path d="M29.334 28.3332C29.334 26.3073 23.5883 24.6665 16.5007 24.6665M29.334 28.3332C29.334 30.359 23.5883 31.9998 16.5007 31.9998C9.41298 31.9998 3.66732 30.359 3.66732 28.3332M29.334 28.3332V37.3843C29.334 39.4725 23.5883 41.1665 16.5007 41.1665C9.41298 41.1665 3.66732 39.4743 3.66732 37.3843V28.3332M29.334 28.3332C36.3446 28.3332 42.1673 26.5237 42.1673 24.6665V6.33317M16.5007 24.6665C9.41298 24.6665 3.66732 26.3073 3.66732 28.3332M16.5007 24.6665C8.40098 24.6665 1.83398 22.857 1.83398 20.9998V11.8332M16.5007 8.1665C8.40098 8.1665 1.83398 9.80734 1.83398 11.8332M1.83398 11.8332C1.83398 13.859 8.40098 15.4998 16.5007 15.4998C16.5007 17.357 22.4645 19.1665 29.4751 19.1665C36.4858 19.1665 42.1673 17.357 42.1673 15.4998M42.1673 6.33317C42.1673 4.30734 36.484 2.6665 29.4751 2.6665C22.4663 2.6665 16.783 4.30734 16.783 6.33317M42.1673 6.33317C42.1673 8.359 36.484 9.99984 29.4751 9.99984C22.4663 9.99984 16.783 8.359 16.783 6.33317M16.783 6.33317V24.9708" stroke="#727171" stroke-width="2"/>
</g>
<defs>
<clipPath id="clip0_5370_6591">
<rect width="44" height="44" fill="white"/>
</clipPath>
</defs>
</svg>
