<svg width="90" height="21" viewBox="0 0 90 21" fill="none" xmlns="http://www.w3.org/2000/svg">
<path d="M45.6016 0.94872C45.6016 1.47275 45.3509 2.91073 45.0552 2.91073C44.7594 2.91073 44.5112 1.47275 44.5112 0.94872C44.5112 0.424689 44.7619 0 45.0552 0C45.3484 0 45.6016 0.424689 45.6016 0.94872Z" fill="#8FB0DC"/>
<path d="M43.6564 1.17718C43.9196 1.63167 44.4359 2.99763 44.1753 3.14664C43.9146 3.29565 42.9771 2.1706 42.7114 1.71611C42.4457 1.26162 42.4432 0.772356 42.7114 0.623343C42.9796 0.474329 43.3907 0.722685 43.6564 1.17718Z" fill="#8FB0DC"/>
<path d="M42.0774 2.30992C42.5361 2.55828 43.6715 3.49954 43.5212 3.75783C43.3708 4.01612 41.9922 3.50948 41.5335 3.24374C41.0748 2.978 40.8241 2.56076 40.977 2.30247C41.1299 2.04418 41.6087 2.04666 42.0774 2.30992Z" fill="#8FB0DC"/>
<path d="M41.2829 4.07056C41.8118 4.07056 43.2631 4.31891 43.2631 4.61197C43.2631 4.90503 41.8118 5.15091 41.2829 5.15091C40.7541 5.15091 40.3254 4.90255 40.3254 4.61197C40.3254 4.3214 40.7541 4.07056 41.2829 4.07056Z" fill="#8FB0DC"/>
<path d="M41.4832 5.99289C41.9419 5.72963 43.3205 5.2205 43.4709 5.47879C43.6213 5.73708 42.4883 6.66593 42.0296 6.92671C41.5709 7.18748 41.0771 7.19245 40.9267 6.92671C40.7763 6.66097 41.0245 6.25366 41.4832 5.99289Z" fill="#8FB0DC"/>
<path d="M42.6265 7.55509C42.8922 7.1006 43.8296 5.97803 44.0903 6.12704C44.351 6.27605 43.8396 7.64201 43.5714 8.0965C43.3032 8.551 42.8796 8.79687 42.6189 8.64785C42.3583 8.49884 42.3608 8.00958 42.6265 7.55509Z" fill="#8FB0DC"/>
<path d="M44.4058 8.34238C44.4058 7.81835 44.6564 6.38037 44.9497 6.38037C45.2429 6.38037 45.4961 7.81835 45.4961 8.34238C45.4961 8.86641 45.2455 9.29359 44.9497 9.29359C44.6539 9.29359 44.4058 8.8689 44.4058 8.34238Z" fill="#8FB0DC"/>
<path d="M46.3434 8.1436C46.0928 7.6891 45.5639 6.32315 45.8246 6.17413C46.0852 6.02512 47.0227 7.15017 47.2884 7.60466C47.5541 8.05916 47.5566 8.54842 47.2884 8.69743C47.0202 8.84644 46.6216 8.59809 46.3434 8.1436Z" fill="#8FB0DC"/>
<path d="M47.9227 7.01116C47.464 6.75039 46.3286 5.82154 46.4789 5.56325C46.6293 5.30496 48.0079 5.8116 48.4666 6.07734C48.9253 6.34308 49.176 6.76032 49.0256 7.01861C48.8752 7.2769 48.3764 7.27442 47.9227 7.01116Z" fill="#8FB0DC"/>
<path d="M48.7172 5.25027C48.1883 5.25027 46.7371 5.00191 46.7371 4.70885C46.7371 4.41579 48.1883 4.16992 48.7172 4.16992C49.2461 4.16992 49.6747 4.41828 49.6747 4.70885C49.6747 4.99943 49.2461 5.25027 48.7172 5.25027Z" fill="#8FB0DC"/>
<path d="M48.5167 3.3278C48.058 3.59106 46.6794 4.10019 46.529 3.8419C46.3786 3.58361 47.5141 2.65475 47.9703 2.39398C48.4264 2.13321 48.9227 2.12824 49.0731 2.39398C49.2235 2.65972 48.9754 3.06703 48.5167 3.3278Z" fill="#8FB0DC"/>
<path d="M47.3737 1.76568C47.108 2.22017 46.1705 3.34274 45.9099 3.19372C45.6492 3.04471 46.1605 1.67875 46.4287 1.22426C46.6969 0.76977 47.123 0.523898 47.3737 0.672911C47.6243 0.821925 47.6369 1.31119 47.3737 1.76568Z" fill="#8FB0DC"/>
<path d="M69.8223 9.88696H72.0481V20.909H69.8223V9.88696Z" fill="#727171"/>
<path d="M87.759 9.88702H89.9999V18.9868C89.992 19.4968 89.7831 19.9834 89.4177 20.3427C89.0523 20.7019 88.5595 20.9052 88.0448 20.9091C87.618 20.905 87.2046 20.7609 86.8692 20.4993L76.635 12.4178V20.9091H74.4092V11.8068C74.4095 11.5533 74.4604 11.3024 74.559 11.0685C74.6576 10.8346 74.8019 10.6223 74.9836 10.4439C75.1653 10.2654 75.3809 10.1244 75.6178 10.0288C75.8548 9.93324 76.1085 9.88506 76.3643 9.88702C76.7916 9.88571 77.2065 10.0295 77.5399 10.2943L87.759 18.3783V9.88702Z" fill="#727171"/>
<path d="M67.4612 13.1926V14.2953C67.4585 15.1716 67.1058 16.0113 66.4802 16.6307C65.8546 17.2501 65.0069 17.5989 64.1225 17.6009H54.1113V20.909H51.8855V9.88696H64.1225C65.0069 9.88893 65.8546 10.2377 66.4802 10.8572C67.1058 11.4766 67.4585 12.3163 67.4612 13.1926ZM65.2354 13.1926C65.2315 12.9013 65.113 12.6231 64.9051 12.4171C64.6972 12.2112 64.4164 12.0937 64.1225 12.0899H54.1113V15.398H64.1225C64.4172 15.3967 64.6995 15.2801 64.9079 15.0736C65.1164 14.8671 65.234 14.5873 65.2354 14.2953V13.1926Z" fill="#727171"/>
<path d="M43.8645 9.88696H46.0878V20.909H43.8645V9.88696Z" fill="#727171"/>
<path d="M17.6111 9.88696H19.8344V20.909H17.6111V9.88696Z" fill="#727171"/>
<path d="M15.8113 20.909H12.0941L6.01571 16.3914L2.20827 19.0339V20.909H0V9.88696H2.20827V16.3442L11.505 9.88696H15.3676L7.91316 15.0677L15.8113 20.909Z" fill="#727171"/>
<path d="M37.3475 20.9091C36.9932 20.9113 36.6454 20.815 36.3436 20.631C36.0418 20.4471 35.7982 20.1828 35.6405 19.8684L31.8331 12.3433L28.0457 19.8684C27.8676 20.2093 27.589 20.4884 27.2469 20.6685C26.9048 20.8486 26.5155 20.9212 26.1307 20.8768C25.7459 20.8323 25.384 20.6728 25.0929 20.4194C24.8019 20.1661 24.5956 19.831 24.5015 19.4587L22.228 9.88702H24.5165L26.4716 18.0828L30.0459 10.9798C30.212 10.6485 30.4681 10.3697 30.7854 10.1748C31.1027 9.97996 31.4686 9.87671 31.8419 9.87671C32.2152 9.87671 32.5811 9.97996 32.8984 10.1748C33.2157 10.3697 33.4718 10.6485 33.6378 10.9798L37.2297 18.0828L39.1848 9.88702H41.4582L39.1848 19.476C39.0829 19.8833 38.8469 20.2452 38.5142 20.5047C38.1814 20.7642 37.7709 20.9065 37.3475 20.9091Z" fill="#727171"/>
</svg>
