<svg width="102" height="28" viewBox="0 0 102 28" fill="none" xmlns="http://www.w3.org/2000/svg">
<path d="M28.1222 14C28.1222 16.7689 27.2975 19.4757 25.7524 21.778C24.2074 24.0803 22.0114 25.8747 19.442 26.9343C16.8727 27.9939 14.0455 28.2712 11.3179 27.731C8.59032 27.1908 6.08488 25.8574 4.1184 23.8995C2.15192 21.9416 0.812736 19.447 0.270186 16.7313C-0.272364 14.0155 0.00609246 11.2006 1.07034 8.64243C2.13459 6.08427 3.93683 3.89776 6.24917 2.35942C8.5615 0.821086 11.2801 0 14.0611 0C17.7903 0 21.3668 1.475 24.0038 4.1005C26.6407 6.72601 28.1222 10.287 28.1222 14Z" fill="#E72410"/>
<path d="M19.1373 5.06006H15.6221V8.56006H19.1373V5.06006Z" fill="white"/>
<path d="M3.12183 14.7771V17.8914H6.24972V21H9.37184V14.7771H3.12183Z" fill="white"/>
<path d="M3.90259 8.5542V11.6685H12.5V20.9999H15.6221V8.5542H3.90259Z" fill="white"/>
<path d="M18.75 11.6687V21.0001H21.8721V14.7773H25.7748V11.6687H18.75Z" fill="white"/>
<path d="M40.7924 24.1943C40.8093 24.5168 40.7546 24.839 40.6322 25.138C40.5099 25.437 40.3228 25.7055 40.0843 25.9243C39.5282 26.3633 38.8294 26.5834 38.1209 26.5428H35.5146V19.1082H38.1861C38.7529 19.0571 39.3205 19.1972 39.7977 19.5061C39.9576 19.6425 40.0839 19.8136 40.1667 20.0064C40.2496 20.1991 40.2868 20.4083 40.2755 20.6176C40.2962 20.97 40.1933 21.3185 39.9844 21.6037C39.7413 21.866 39.4112 22.0318 39.0549 22.0708C39.5346 22.1227 39.9776 22.3509 40.2972 22.7109C40.6457 23.1247 40.8228 23.6551 40.7924 24.1943ZM38.6769 21.0198C38.688 20.9021 38.6722 20.7835 38.6308 20.6726C38.5895 20.5618 38.5236 20.4617 38.438 20.3797C38.2289 20.2343 37.9756 20.1655 37.7213 20.1851H37.1349V21.8286H37.7517C37.8817 21.8423 38.0131 21.8302 38.1383 21.7931C38.2635 21.756 38.3802 21.6945 38.4815 21.6123C38.6212 21.4477 38.6899 21.2347 38.6726 21.0198H38.6769ZM39.1113 24.1078C39.1222 23.9361 39.0985 23.7638 39.0419 23.6012C38.9852 23.4386 38.8966 23.2889 38.7812 23.1607C38.6332 23.0343 38.4612 22.9389 38.2753 22.8802C38.0895 22.8215 37.8937 22.8007 37.6996 22.819H37.1349V25.4788H37.7995C37.9842 25.4958 38.1704 25.4734 38.3457 25.413C38.521 25.3526 38.6813 25.2556 38.8159 25.1285C39.0381 24.8362 39.1461 24.4735 39.12 24.1078H39.1113Z" fill="#231815"/>
<path d="M46.6782 26.5557H45.1926L45.1666 25.8162C45.028 26.0681 44.8139 26.2707 44.5541 26.3957C44.2418 26.5519 43.8957 26.6291 43.5463 26.6206C43.2887 26.64 43.0297 26.6083 42.7844 26.5274C42.5391 26.4464 42.3123 26.3179 42.1172 26.1492C41.9425 25.9552 41.8093 25.7279 41.7257 25.481C41.6421 25.2342 41.6097 24.973 41.6307 24.7133V24.6138C41.6145 24.3353 41.6646 24.0568 41.7771 23.8013C41.8896 23.5457 42.0612 23.3202 42.2779 23.1433C42.7798 22.7767 43.3939 22.5948 44.0155 22.6287C44.2359 22.6285 44.4552 22.6591 44.667 22.7195C44.8402 22.7604 45.0011 22.842 45.1362 22.9574V22.3951C45.1358 22.2976 45.1115 22.2017 45.0653 22.1158C45.0191 22.0298 44.9525 21.9565 44.8712 21.9021C44.6507 21.7523 44.386 21.6807 44.1197 21.6988C43.8047 21.6933 43.4904 21.7311 43.1858 21.8112C42.9396 21.8791 42.702 21.9749 42.4778 22.0967V21.1409C42.76 21.0295 43.0505 20.9398 43.3465 20.8727C43.7322 20.7939 44.1258 20.7605 44.5194 20.7733C45.1064 20.7237 45.69 20.9019 46.1483 21.2706C46.341 21.485 46.4875 21.7365 46.5787 22.0095C46.6698 22.2825 46.7037 22.5713 46.6782 22.8579V26.5557ZM45.1362 24.6657V24.51C45.1558 24.2294 45.069 23.9516 44.8929 23.7315C44.8009 23.6365 44.6889 23.5629 44.565 23.5158C44.4412 23.4687 44.3084 23.4493 44.1762 23.4591C44.047 23.4524 43.9179 23.4715 43.7963 23.5153C43.6746 23.5592 43.5631 23.6268 43.4682 23.7142C43.3728 23.8249 43.3006 23.9535 43.2558 24.0924C43.211 24.2313 43.1946 24.3777 43.2075 24.523V24.6657C43.1865 24.8069 43.2008 24.9511 43.2493 25.0854C43.2978 25.2198 43.379 25.34 43.4855 25.4356C43.6927 25.5707 43.9375 25.6373 44.1849 25.6259C44.4244 25.6277 44.6568 25.545 44.8408 25.3923C44.9427 25.3018 45.0223 25.1893 45.0735 25.0633C45.1247 24.9373 45.1462 24.8013 45.1362 24.6657Z" fill="#231815"/>
<path d="M53.046 26.5558H51.4605V22.5682C51.4618 22.487 51.4458 22.4066 51.4136 22.332C51.3814 22.2575 51.3337 22.1906 51.2737 22.1357C51.2005 22.0681 51.1142 22.016 51.0201 21.9825C50.926 21.949 50.8261 21.9349 50.7264 21.9411C50.5162 21.9364 50.3083 21.9856 50.1226 22.0838C49.9559 22.178 49.8085 22.3028 49.6882 22.4514V26.5385H48.0984V20.8728H49.6187L49.6491 21.7767C49.7941 21.4781 50.0256 21.2295 50.3137 21.0631C50.6764 20.8505 51.0919 20.7441 51.5126 20.756C51.7204 20.743 51.9285 20.7749 52.1227 20.8496C52.3169 20.9242 52.4926 21.0398 52.6377 21.1885C52.938 21.5786 53.0833 22.0651 53.046 22.5552V26.5558Z" fill="#231815"/>
<path d="M59.7833 26.5555H57.9242L56.1041 24.233V26.5511H54.5229V19.1079H56.1041V23.1777L58.011 20.8725H59.4706L57.2726 23.3983L59.7833 26.5555Z" fill="#231815"/>
<path d="M67.6112 24.3413C67.6332 24.6726 67.5721 25.0043 67.4333 25.3062C67.2945 25.6082 67.0825 25.8711 66.8163 26.0712C66.1594 26.484 65.3895 26.6821 64.614 26.6378C64.1575 26.6446 63.7012 26.6128 63.25 26.5427C62.9371 26.4971 62.6299 26.4188 62.3335 26.3091V25.0116C62.6067 25.1571 62.8992 25.2634 63.2023 25.3274C63.5935 25.4209 63.9944 25.4688 64.3968 25.4701C64.7875 25.5034 65.1799 25.4285 65.5305 25.2538C65.7108 25.0906 65.8203 24.8639 65.8357 24.6217C65.8511 24.3796 65.7713 24.1409 65.6131 23.9563C65.2347 23.6591 64.8048 23.4334 64.3447 23.2903C63.8473 23.1095 63.4005 22.8129 63.0415 22.4253C62.7185 22.0249 62.556 21.5195 62.5854 21.0067C62.5849 20.7248 62.6511 20.4467 62.7786 20.195C62.9062 19.9433 63.0915 19.725 63.3195 19.5579C63.9085 19.1332 64.6265 18.9239 65.3524 18.9654C65.7315 18.9617 66.1099 18.9965 66.4818 19.0692C66.7212 19.1116 66.9565 19.1739 67.1855 19.2551V20.371C66.9032 20.3018 66.6208 20.2412 66.3428 20.1893C66.0476 20.1361 65.7481 20.1101 65.448 20.1115C65.1111 20.0835 64.7735 20.1574 64.4793 20.3234C64.3887 20.3779 64.3136 20.4547 64.2612 20.5463C64.2087 20.6378 64.1806 20.7413 64.1796 20.8467C64.1722 20.9565 64.1886 21.0666 64.2276 21.1695C64.2665 21.2725 64.3272 21.3659 64.4055 21.4435C64.8099 21.7018 65.2485 21.9027 65.7086 22.0404C66.2671 22.2054 66.7661 22.5267 67.1464 22.9659C67.4584 23.356 67.6229 23.8428 67.6112 24.3413Z" fill="#231815"/>
<path d="M70.2739 19.601C70.2763 19.7117 70.256 19.8218 70.2141 19.9244C70.1723 20.0271 70.1099 20.1201 70.0306 20.1978C69.8736 20.3531 69.6612 20.4403 69.4399 20.4403C69.2185 20.4403 69.0062 20.3531 68.8491 20.1978C68.7503 20.1016 68.677 19.9825 68.6356 19.8511C68.5942 19.7198 68.5861 19.5803 68.612 19.4451C68.6378 19.3099 68.6969 19.1832 68.7838 19.0762C68.8708 18.9692 68.983 18.8853 69.1104 18.8319C69.2378 18.7785 69.3765 18.7574 69.5141 18.7703C69.6518 18.7832 69.7841 18.8298 69.8992 18.9059C70.0144 18.982 70.1089 19.0853 70.1742 19.2066C70.2396 19.3279 70.2738 19.4634 70.2739 19.601ZM70.2304 26.5555H68.6493V20.8725H70.2304V26.5555Z" fill="#231815"/>
<path d="M76.6462 26.5557H75.0651V22.5681C75.0667 22.4865 75.0504 22.4055 75.0174 22.3308C74.9844 22.2562 74.9354 22.1895 74.874 22.1356C74.8011 22.0673 74.7149 22.0148 74.6207 21.9813C74.5266 21.9478 74.4264 21.9341 74.3266 21.9409C74.1179 21.9369 73.9115 21.986 73.7272 22.0837C73.5605 22.1779 73.4131 22.3026 73.2928 22.4513V26.5384H71.7117V20.8727H73.232L73.2624 21.7766C73.4061 21.4771 73.6379 21.2282 73.927 21.063C74.2864 20.8595 74.6954 20.7592 75.1085 20.7732C75.3157 20.7599 75.5232 20.7917 75.7168 20.8664C75.9103 20.9411 76.0852 21.0569 76.2292 21.2057C76.5314 21.5948 76.677 22.0821 76.6376 22.5724L76.6462 26.5557Z" fill="#231815"/>
<path d="M83.6178 23.8873C83.6426 24.2669 83.5879 24.6475 83.457 25.0049C83.3261 25.3623 83.122 25.6887 82.8576 25.9633C82.2652 26.4446 81.5241 26.7074 80.7595 26.7074C79.995 26.7074 79.2538 26.4446 78.6615 25.9633C78.3963 25.6955 78.1899 25.3757 78.0553 25.0243C77.9207 24.6729 77.8609 24.2975 77.8796 23.9219V23.5586C77.8642 23.1867 77.9248 22.8156 78.0577 22.4676C78.1906 22.1197 78.393 21.8023 78.6528 21.5346C79.2388 21.0359 79.9843 20.762 80.7552 20.762C81.526 20.762 82.2716 21.0359 82.8576 21.5346C83.1138 21.8033 83.3131 22.1206 83.4437 22.4675C83.5743 22.8145 83.6335 23.1841 83.6178 23.5543V23.8873ZM81.9801 23.7489V23.6624C82.0359 23.1139 81.9092 22.5624 81.6196 22.0925C81.5175 21.9592 81.3862 21.8509 81.2356 21.7759C81.085 21.701 80.9192 21.6613 80.7508 21.66C80.5819 21.6583 80.4151 21.6966 80.264 21.7718C80.1129 21.847 79.982 21.9569 79.8821 22.0925C79.6142 22.5593 79.496 23.0965 79.5433 23.6322V23.7187C79.5433 24.5188 79.6518 25.0507 79.8734 25.3146C79.9825 25.4437 80.1199 25.5464 80.275 25.6146C80.4301 25.6828 80.5988 25.7148 80.7682 25.7081C80.9321 25.7087 81.0943 25.6747 81.244 25.6084C81.3938 25.542 81.5277 25.4448 81.637 25.3232C81.8585 25.0983 81.9801 24.562 81.9801 23.7489Z" fill="#231815"/>
<path d="M89.8164 21.638C89.8366 21.9045 89.7947 22.1721 89.6937 22.4197C89.5927 22.6673 89.4354 22.8883 89.2343 23.0652C88.7476 23.4162 88.1527 23.5861 87.5532 23.5453H86.5368V26.5728H84.8557V19.1079H87.6618C88.4654 19.1079 89.0258 19.3025 89.3385 19.6918C89.6534 20.0693 89.8228 20.5462 89.8164 21.0368V21.638ZM88.0788 21.7505V21.0239C88.0887 20.9088 88.0724 20.7931 88.031 20.6852C87.9897 20.5774 87.9243 20.4802 87.8399 20.4011C87.6091 20.2453 87.3314 20.1735 87.0537 20.1978H86.5281V22.503H87.1449C87.3838 22.5115 87.6188 22.4416 87.8139 22.304C87.9014 22.2381 87.9719 22.1523 88.0195 22.0537C88.0671 21.9552 88.0904 21.8468 88.0875 21.7375L88.0788 21.7505Z" fill="#231815"/>
<path d="M95.485 26.5558H93.9994L93.9734 25.8162C93.8325 26.0695 93.6152 26.2723 93.3522 26.3958C93.0399 26.552 92.6938 26.6292 92.3444 26.6207C92.0868 26.6401 91.8278 26.6084 91.5825 26.5275C91.3372 26.4465 91.1104 26.318 90.9153 26.1493C90.7406 25.9553 90.6074 25.728 90.5238 25.4811C90.4402 25.2343 90.4078 24.9731 90.4288 24.7134V24.6139C90.4136 24.3355 90.4643 24.0574 90.5767 23.802C90.6891 23.5466 90.8601 23.321 91.076 23.1434C91.5779 22.7768 92.192 22.5949 92.8136 22.6288C93.0354 22.6289 93.2561 22.6595 93.4695 22.7196C93.6419 22.7626 93.8023 22.8439 93.9386 22.9575V22.3952C93.9374 22.2974 93.9122 22.2014 93.8653 22.1155C93.8184 22.0296 93.7511 21.9563 93.6693 21.9022C93.4488 21.7524 93.1841 21.6808 92.9178 21.6989C92.6028 21.6934 92.2885 21.7312 91.9839 21.8113C91.7377 21.8792 91.5001 21.975 91.2759 22.0968V21.141C91.5581 21.0295 91.8486 20.9399 92.1446 20.8728C92.5282 20.7885 92.9204 20.7493 93.3131 20.7561C93.9002 20.7061 94.484 20.8843 94.942 21.2534C95.1348 21.4678 95.2813 21.7193 95.3724 21.9923C95.4636 22.2653 95.4975 22.5541 95.472 22.8407L95.485 26.5558ZM93.9603 24.6658V24.5101C93.9799 24.2295 93.8931 23.9517 93.7171 23.7316C93.625 23.6366 93.5131 23.563 93.3892 23.5159C93.2653 23.4688 93.1326 23.4494 93.0004 23.4592C92.8712 23.4525 92.742 23.4716 92.6204 23.5154C92.4988 23.5593 92.3872 23.6269 92.2923 23.7143C92.1969 23.825 92.1247 23.9536 92.08 24.0925C92.0352 24.2314 92.0188 24.3778 92.0317 24.5231V24.6658C92.0106 24.807 92.025 24.9512 92.0735 25.0855C92.122 25.2199 92.2031 25.3401 92.3097 25.4357C92.5169 25.5708 92.7616 25.6374 93.009 25.626C93.2497 25.627 93.4832 25.5444 93.6693 25.3924C93.7696 25.3009 93.8479 25.1881 93.8983 25.0623C93.9487 24.9364 93.9699 24.8009 93.9603 24.6658Z" fill="#231815"/>
<path d="M101.206 26.2529C101.03 26.3586 100.842 26.4442 100.646 26.5081C100.336 26.6241 100.008 26.6828 99.6771 26.6811C98.8803 26.7221 98.0967 26.4661 97.4791 25.9631C97.1932 25.6881 96.9717 25.3536 96.8306 24.9836C96.6894 24.6135 96.632 24.217 96.6625 23.8223V23.5844C96.6443 23.2022 96.706 22.8203 96.8436 22.463C96.9811 22.1057 97.1916 21.7807 97.4618 21.5084C97.7534 21.2412 98.0958 21.0346 98.4688 20.901C98.8418 20.7673 99.2378 20.7091 99.6337 20.73C99.9644 20.7251 100.294 20.7703 100.611 20.864C100.83 20.9184 101.034 21.0187 101.21 21.1581V22.1745C101.044 22.0314 100.853 21.92 100.646 21.8458C100.399 21.7576 100.139 21.7137 99.8769 21.716C99.6648 21.7058 99.4534 21.7474 99.2611 21.8371C99.0688 21.9268 98.9015 22.0619 98.7736 22.2307C98.4972 22.6491 98.3632 23.1449 98.3913 23.645V23.7488C98.3486 24.245 98.4577 24.7425 98.7041 25.176C98.8218 25.3246 98.9746 25.4419 99.149 25.5174C99.3233 25.5928 99.5137 25.6242 99.7032 25.6085C100.01 25.6089 100.315 25.5608 100.607 25.4658C100.824 25.4078 101.028 25.3111 101.21 25.1803L101.206 26.2529Z" fill="#231815"/>
<path d="M36.1008 7.22329H41.27L41.6609 7.72066C41.3192 10.0792 39.6179 12.2287 36.5569 14.1692L35.5796 13.0706C36.5281 12.6172 37.4179 12.0508 38.2293 11.3839C38.783 10.9007 39.2734 10.35 39.6888 9.74474C39.919 9.43595 40.102 9.0949 40.2318 8.7327C40.2468 8.70869 40.2548 8.68097 40.2548 8.65269C40.2548 8.6244 40.2468 8.59669 40.2318 8.57268C40.1341 8.51759 40.0224 8.49204 39.9104 8.49915H36.1008V7.22329ZM43.8328 8.79325V13.6718C43.8448 13.9337 43.7952 14.1947 43.6882 14.4342C43.5811 14.6737 43.4194 14.885 43.216 15.0514C42.7699 15.3646 42.2261 15.5088 41.6827 15.458C40.8728 15.4468 40.0669 15.3438 39.2805 15.1509L39.1936 13.741C40.714 14.1735 41.6783 14.2686 42.091 14.0654C42.2171 13.96 42.3171 13.8272 42.3834 13.6772C42.4497 13.5272 42.4804 13.3641 42.4732 13.2004V5.94743C42.4732 5.81336 42.4037 5.74416 42.256 5.74416H36.5005V4.4683H43.3985C43.6852 4.4683 43.8328 4.62833 43.8111 4.9008V5.41547C44.2972 6.98228 44.9911 8.4775 45.8744 9.86151C46.9571 11.3381 48.2781 12.6256 49.7839 13.6718L48.6328 14.5368C46.6398 12.9849 45.0033 11.0266 43.8328 8.79325ZM38.1859 2.9762L38.377 1.67871C39.072 1.72629 40.323 1.86036 42.1301 2.07228C43.679 2.22947 45.2188 2.46622 46.7432 2.78157L46.4652 4.07906C43.7437 3.46778 40.973 3.0987 38.1859 2.9762ZM48.7066 4.27368L49.6145 5.20354C48.6867 6.29702 47.6456 7.29004 46.5086 8.16613L45.6399 7.21032C46.7534 6.34445 47.7738 5.36612 48.6849 4.29098L48.7066 4.27368Z" fill="#231815"/>
<path d="M56.7732 14.2857C56.7124 14.1516 56.6559 14.0175 56.5951 13.8921C56.4691 13.6585 56.3692 13.4596 56.2997 13.3039H54.4189C54.3277 13.3039 54.2842 13.2563 54.2842 13.1612V10.7738C54.2812 10.7555 54.2826 10.7368 54.2883 10.7192C54.294 10.7015 54.3039 10.6855 54.317 10.6724C54.3302 10.6593 54.3463 10.6495 54.364 10.6438C54.3817 10.6381 54.4005 10.6367 54.4189 10.6397H65.2523C65.3479 10.6397 65.3957 10.683 65.3957 10.7738V13.1785C65.3986 13.1979 65.397 13.2177 65.3908 13.2364C65.3846 13.255 65.3742 13.272 65.3602 13.2859C65.3463 13.2997 65.3292 13.3102 65.3105 13.3163C65.2918 13.3225 65.2718 13.3241 65.2523 13.3212H63.3063C63.2368 13.5072 63.1413 13.7537 63.0153 14.0132C62.9575 14.1052 62.9081 14.2022 62.8676 14.303H66.8552V15.3453H52.7812V14.2857H56.7732ZM53.1374 9.0395H66.5772V10.0213H53.1374V9.0395ZM62.3507 6.65213H60.9693V5.74389H62.3507V5.02595H60.9693V4.10473H62.3507V3.32624H60.9693V2.40503H62.3507V1.54004H63.3802V2.40503H64.6138V3.32624H63.3802V4.10473H64.5573V5.02595H63.3802V5.74389H64.5573V6.66943H63.3802V7.41764H64.97C64.9959 7.42124 65.0224 7.41879 65.0472 7.41049C65.072 7.4022 65.0946 7.38829 65.1131 7.36985C65.1316 7.35141 65.1456 7.32894 65.154 7.30421C65.1623 7.27949 65.1647 7.25318 65.1611 7.22734V1.80386H66.3209V7.91501C66.3295 7.98064 66.3227 8.04734 66.3013 8.10997C66.2799 8.17261 66.2443 8.22951 66.1973 8.2763C66.1503 8.32309 66.0931 8.35852 66.0302 8.37987C65.9673 8.40121 65.9003 8.40789 65.8344 8.39941H53.8238C53.7589 8.40576 53.6934 8.39748 53.6321 8.37518C53.5709 8.35289 53.5155 8.31715 53.47 8.27063C53.4245 8.2241 53.3901 8.16797 53.3694 8.10641C53.3487 8.04485 53.3422 7.97943 53.3503 7.91501V1.80386H54.5144V7.22734C54.5144 7.35277 54.5752 7.41764 54.6925 7.41764H56.2954V6.66943H54.9923V5.74389H56.2954V4.96972H55.0313V4.04851H56.2954V3.32624H54.9923V2.40503H56.2954V1.61356H57.3423V2.40503H58.5194V3.32624H57.3423V4.04851H58.5194V4.96972H57.3423V5.74389H58.5759V6.66943H57.3423V7.41764H59.1797V1.61356H60.3395V7.41764H62.355L62.3507 6.65213ZM64.2924 11.6042H55.3745C55.3354 11.6042 55.318 11.6042 55.3311 11.6518V12.2659C55.3311 12.2962 55.3311 12.3135 55.3745 12.3221H64.2924C64.3315 12.3221 64.3532 12.2962 64.3532 12.2659V11.6907C64.3532 11.6388 64.3315 11.6215 64.2924 11.6215V11.6042ZM58.0242 14.2857H61.5862C61.7512 13.957 61.9163 13.6283 62.0727 13.3039H57.5681C57.6637 13.5072 57.8157 13.8532 58.0242 14.2857Z" fill="#231815"/>
<path d="M73.6187 2.68615C72.8604 3.61342 71.9724 4.42759 70.982 5.1038L69.896 4.33828C71.5322 3.34354 72.6022 2.39061 73.1061 1.47949H74.2398C74.2094 1.55734 74.1747 1.63952 74.1356 1.73034L74.166 1.70006C74.8263 2.33045 75.5224 2.9225 76.251 3.47329L75.2954 4.33828C74.7068 3.81827 74.147 3.26675 73.6187 2.68615ZM70.0133 10.1899L71.1296 9.85259C71.4949 10.7624 71.7515 11.7117 71.8942 12.6811L70.7474 12.9579C70.5984 12.0127 70.3524 11.0852 70.0133 10.1899ZM72.4979 13.6499V9.14762H70.2609V7.98854H72.5023V6.44886H70.9168V5.2941H75.3431V6.44886H73.7272V7.98854H75.8166V9.14762H73.7272V13.3515C74.6655 13.1006 75.291 12.919 75.5951 12.8411L75.847 14.0262C74.0682 14.5177 72.2644 14.9147 70.4433 15.2155L70.2826 14.0262C70.9515 13.9224 71.6943 13.7883 72.5023 13.6326L72.4979 13.6499ZM74.7828 9.88287L75.8123 10.2505C75.6327 10.9223 75.3982 11.6287 75.1086 12.3697L74.1052 11.9372C74.3854 11.2655 74.6119 10.5728 74.7828 9.86557V9.88287ZM80.8641 11.2452C81.6292 10.672 82.3482 10.0401 83.0143 9.35522L83.8092 10.2202C83.0916 10.9764 82.3032 11.6628 81.4549 12.2702C82.1983 13.2003 83.0941 13.9987 84.1046 14.6317L83.0143 15.4966C82.2484 14.9586 81.5512 14.3298 80.938 13.6239C79.8114 12.2961 79.1725 10.6258 79.1266 8.88813H77.7887V13.8099C78.6227 13.5562 79.3337 13.3068 79.9215 13.0617L80.3212 14.2208C78.9045 14.8149 77.4299 15.2613 75.9209 15.5529L75.5821 14.3635C75.9122 14.277 76.2423 14.1992 76.5681 14.13V2.30123C76.5616 2.25372 76.5663 2.20536 76.5817 2.15992C76.5971 2.11449 76.6228 2.07321 76.6569 2.03931C76.6909 2.0054 76.7324 1.97978 76.778 1.96445C76.8237 1.94912 76.8722 1.94449 76.9199 1.95091H82.7798C83.023 1.95091 83.1446 2.06769 83.1446 2.30123V8.47293C83.151 8.52442 83.1454 8.57667 83.1284 8.62571C83.1115 8.67475 83.0835 8.7193 83.0467 8.75598C83.0098 8.79266 82.9651 8.8205 82.9158 8.83741C82.8666 8.85431 82.8141 8.85982 82.7624 8.85353H80.3472C80.3918 9.66689 80.5647 10.4682 80.8598 11.2279L80.8641 11.2452ZM77.7887 4.83998H81.924V3.38679C81.927 3.34818 81.9212 3.30939 81.9072 3.27328C81.8931 3.23717 81.8711 3.20465 81.8428 3.17811C81.8145 3.15157 81.7805 3.13167 81.7435 3.11989C81.7064 3.1081 81.6672 3.10472 81.6286 3.11H78.0841C77.8756 3.11 77.78 3.21812 77.7887 3.40409V4.83998ZM81.924 5.99906H77.7887V7.72904H81.6026C81.6466 7.73486 81.6913 7.73044 81.7333 7.71613C81.7752 7.70182 81.8133 7.67801 81.8444 7.64657C81.8756 7.61513 81.899 7.57691 81.9128 7.53494C81.9266 7.49297 81.9305 7.44837 81.924 7.40467V5.99906Z" fill="#231815"/>
<path d="M89.178 9.61443C88.8261 9.97341 88.496 10.2891 88.1919 10.5529L87.1494 9.73121C88.5749 8.57202 89.6996 7.08872 90.429 5.40626L91.6149 5.92093C91.2753 6.62043 90.8968 7.30051 90.4811 7.95798V15.4618H89.178V9.61443ZM89.8773 1.61328L91.0675 2.04578C90.2799 3.9228 89.372 5.314 88.344 6.21935L87.271 5.49708C88.4482 4.4363 89.3436 3.10208 89.8773 1.61328ZM97.5442 7.08002H92.1578V5.80416H101.171V7.08002H98.8169V13.8183C98.827 14.0745 98.7698 14.329 98.651 14.5565C98.5321 14.7841 98.3558 14.9768 98.1393 15.1158C97.3226 15.6477 95.8414 15.5958 93.6955 14.973L93.7216 13.6366C94.462 13.8566 95.2148 14.0328 95.976 14.1643C96.2188 14.2192 96.4701 14.2256 96.7154 14.1833C96.9607 14.141 97.1951 14.0508 97.4052 13.9178C97.4557 13.8586 97.4934 13.7895 97.5158 13.7151C97.5383 13.6407 97.545 13.5624 97.5355 13.4853L97.5442 7.08002ZM92.6226 2.28797H100.585V3.55951H92.6226V2.28797Z" fill="#231815"/>
</svg>
