<svg width="24" height="24" viewBox="0 0 24 24" fill="none" xmlns="http://www.w3.org/2000/svg">
<path d="M1 5C1 4.448 1.44 4 2.002 4H21.998C22.1295 3.99974 22.2597 4.02541 22.3813 4.07555C22.5029 4.12568 22.6133 4.1993 22.7064 4.29219C22.7995 4.38507 22.8733 4.4954 22.9237 4.61686C22.9741 4.73831 23 4.86851 23 5V19C23 19.552 22.56 20 21.998 20H2.002C1.87051 20.0003 1.74026 19.9746 1.6187 19.9245C1.49715 19.8743 1.38667 19.8007 1.2936 19.7078C1.20053 19.6149 1.12669 19.5046 1.07631 19.3831C1.02593 19.2617 1 19.1315 1 19V5ZM1 8H12H23V10H1V8ZM5 15H7V15.5H5V15ZM10 15H16V15.5H10V15Z" stroke="white" stroke-width="2"/>
</svg>
