<svg width="23" height="23" viewBox="0 0 23 23" fill="none" xmlns="http://www.w3.org/2000/svg">
<g clip-path="url(#clip0_5442_6641)">
<path d="M7.66667 22.9997V18.208M15.3333 22.9997V18.208M2.875 22.9997V18.208C2.875 13.4451 6.73708 10.5413 11.5 10.5413M11.5 10.5413C16.2629 10.5413 20.125 13.4451 20.125 18.208V22.9997M11.5 10.5413C12.7708 10.5413 13.9896 10.0365 14.8882 9.13789C15.7868 8.23928 16.2917 7.0205 16.2917 5.74967C16.2917 4.47884 15.7868 3.26007 14.8882 2.36145C13.9896 1.46284 12.7708 0.958008 11.5 0.958008C10.2292 0.958008 9.01039 1.46284 8.11178 2.36145C7.21317 3.26007 6.70833 4.47884 6.70833 5.74967C6.70833 7.0205 7.21317 8.23928 8.11178 9.13789C9.01039 10.0365 10.2292 10.5413 11.5 10.5413Z" stroke="white" stroke-width="2"/>
</g>
<defs>
<clipPath id="clip0_5442_6641">
<rect width="23" height="23" fill="white"/>
</clipPath>
</defs>
</svg>
