<svg width="94" height="22" viewBox="0 0 94 22" fill="none" xmlns="http://www.w3.org/2000/svg">
<path d="M18.3666 15.2784L10.9983 10.9983V19.5043L18.3666 15.2784Z" fill="#D62C2E"/>
<path d="M3.57593 15.2784L10.9984 19.5043V10.9983L3.57593 15.2784Z" fill="#EC402E"/>
<path d="M21.9422 10.9982L20.4794 5.52612L18.3665 6.71805L21.9422 10.9982Z" fill="#DE5398"/>
<path d="M18.3665 15.2783L16.4702 20.4795L20.4794 16.4703L18.3665 15.2783Z" fill="#4A519F"/>
<path d="M20.4794 16.4703L21.9422 10.9983L18.3665 15.2784L20.4794 16.4703Z" fill="#5E5CA5"/>
<path d="M10.9984 2.49219L3.57593 6.71812L10.9984 10.9982V2.49219Z" fill="#F58F31"/>
<path d="M18.3666 15.2785V6.71826L10.9983 10.9984L18.3666 15.2785Z" fill="#EC402E"/>
<path d="M3.57593 6.71826V15.2785L10.9984 10.9984L3.57593 6.71826Z" fill="#F06A2F"/>
<path d="M10.9983 21.9966L16.4703 20.4796L10.9983 19.5044V21.9966Z" fill="#064D59"/>
<path d="M18.3665 6.71824L20.4794 5.52631L16.4702 1.51709L18.3665 6.71824Z" fill="#FCBA31"/>
<path d="M18.3666 6.71812L10.9983 2.49219V10.9982L18.3666 6.71812Z" fill="#F06A2F"/>
<path d="M1.46282 5.52612L0 10.9982L3.57579 6.71805L1.46282 5.52612Z" fill="#FCBA31"/>
<path d="M10.9984 19.5044L5.47217 20.4796L10.9984 21.9966V19.5044Z" fill="#0F897A"/>
<path d="M3.57586 6.71824L5.47211 1.51709L1.46289 5.52631L3.57586 6.71824Z" fill="#FCD630"/>
<path d="M10.9984 0L5.47217 1.517L10.9984 2.49222V0Z" fill="#FCD630"/>
<path d="M0 10.9983L1.46282 16.4703L3.57579 15.2784L0 10.9983Z" fill="#FCBA31"/>
<path d="M3.57586 15.2783L1.46289 16.4703L5.47211 20.4795L3.57586 15.2783Z" fill="#59C0AB"/>
<path d="M16.4703 1.517L10.9983 0V2.49222L16.4703 1.517Z" fill="#FCBA31"/>
<path d="M10.9983 19.5043L16.4703 20.4795L18.3666 15.2783L10.9983 19.5043Z" fill="#5E5CA5"/>
<path d="M3.57593 15.2783L5.47218 20.4795L10.9984 19.5043L3.57593 15.2783Z" fill="#0CAA7E"/>
<path d="M18.3666 6.71824L16.4703 1.51709L10.9983 2.49231L18.3666 6.71824Z" fill="#F79B31"/>
<path d="M18.3665 6.71826V15.2785L21.9422 10.9984L18.3665 6.71826Z" fill="#CF2875"/>
<path d="M10.9984 2.49231L5.47218 1.51709L3.57593 6.71824L10.9984 2.49231Z" fill="#FCBA31"/>
<path d="M3.57579 15.2785V6.71826L0 10.9984L3.57579 15.2785Z" fill="#F79B31"/>
<path d="M76.7172 7.26001H70.595V10.1315H76.7172V7.26001ZM71.8411 8.34358H75.471V9.0479H71.8411V8.34358Z" fill="#2D2D70"/>
<path d="M78.1799 10.2399H79.426V6.6099H80.7263V5.41797H69.6196V6.6099H78.1799V10.2399Z" fill="#2D2D70"/>
<path d="M29.2563 16.5787H37.7082C38.7376 16.5787 39.5503 15.9827 39.5503 14.9533V11.6484H29.2563V16.5787ZM30.6108 12.9487H38.1958V14.5741C38.1958 15.1159 37.9249 15.2784 37.4373 15.2784H30.6108V12.9487Z" fill="#2D2D70"/>
<path d="M37.3833 7.47653L38.2502 8.99353H30.5026V8.72264C30.5026 8.18085 30.7735 7.8016 31.2069 7.63907L34.4577 6.06789L33.8617 4.82178L30.5026 6.50131C29.4732 6.98892 29.0398 7.8016 29.0398 8.831V10.4022H39.0628L39.4421 11.0523L40.634 10.4564L38.5752 6.93474L37.3833 7.47653Z" fill="#2D2D70"/>
<path d="M69.0234 11.9192H78.1796V14.3031C78.1796 15.6034 77.2586 15.8743 76.0125 15.8743V17.1204H76.2292C78.3422 17.1204 79.4799 16.1993 79.4799 14.2489V11.865H81.0511V10.7273H69.0776V11.9192H69.0234Z" fill="#2D2D70"/>
<path d="M62.5224 9.21039H67.5068V7.80175H62.5224V5.20117H61.1137V7.80175H56.2377V9.21039H61.0595C60.6261 11.6484 59.7051 14.1948 55.8584 15.6576L56.5627 16.9038C60.2469 15.4951 61.3846 13.2738 61.9264 11.1608C62.7391 13.4363 64.4728 15.766 67.2359 16.9038L67.9944 15.6035C64.5812 14.0865 63.0642 11.4317 62.5224 9.21039Z" fill="#2D2D70"/>
<path d="M76.7169 12.5693H70.4863V15.5492H76.7169V12.5693ZM75.4708 14.4656H71.7324V13.6529H75.4708V14.4656Z" fill="#2D2D70"/>
<path d="M88.5822 9.21039H93.5666V7.80175H88.5822V5.20117H87.1193V7.80175H82.2433V9.21039H87.0652C86.6317 11.6484 85.7107 14.1948 81.864 15.6576L82.5683 16.9038C86.2525 15.4951 87.3902 13.2738 87.932 11.1608C88.7447 13.4363 90.4784 15.766 93.2415 16.9038L94 15.6035C90.5868 14.0865 89.0698 11.4317 88.5822 9.21039Z" fill="#2D2D70"/>
<path d="M43.2887 12.5153C43.2887 14.3573 43.0178 15.4409 41.6633 15.9827L42.4218 17.0121C44.2639 16.3078 44.5348 14.5199 44.5348 12.2985V12.1902H43.2887V12.5153Z" fill="#2D2D70"/>
<path d="M41.9885 5.79705L43.8306 7.85584L44.7516 6.98899L42.9096 4.98438L41.9885 5.79705Z" fill="#2D2D70"/>
<path d="M41.9343 8.99361L43.7764 11.0524L44.6974 10.2397L42.8554 8.23511L41.9343 8.99361Z" fill="#2D2D70"/>
<path d="M46.7562 13.7071H53.5827V11.269H45.4018V12.2443H52.2824V12.7319H45.6726L45.1309 15.6575L46.377 15.8742L46.4853 15.3324H52.8242C52.6617 15.7659 52.0115 15.9826 50.1153 16.0368V17.1745H50.2778C53.0409 17.1745 54.1245 16.416 54.1245 14.899V14.303H46.6479L46.7562 13.7071Z" fill="#2D2D70"/>
<path d="M47.7856 6.33906V5.41803H49.0318V4.93042H50.0612V5.41803H51.3614V6.33906H47.7856Z" fill="#2D2D70"/>
<path d="M50.0069 10.7272V10.2396H49.14V10.7272H48.219V9.3186H50.9279V10.7272H50.0069Z" fill="#2D2D70"/>
<path d="M50.7654 8.01831H48.3274V8.93935H50.7654V8.01831Z" fill="#2D2D70"/>
<path d="M50.7654 6.71826H48.3274V7.6393H50.7654V6.71826Z" fill="#2D2D70"/>
<path d="M46.8646 9.80629H46.1602V9.75212C46.1602 9.58958 46.1602 9.42705 46.2686 9.21033L47.9481 7.20572L47.2438 6.66393L46.5937 7.42243H46.1061V7.20572C46.1061 7.04318 46.1602 6.88065 46.2686 6.77229L47.1896 5.58036L46.4853 5.03857L45.4017 6.39304C45.185 6.60976 45.1308 6.88065 45.1308 7.20572V8.23511H45.9435L45.4017 8.83108C45.185 9.10197 45.0767 9.42704 45.0767 9.86047V10.7273H47.7856V8.93944H46.8104V9.80629H46.8646Z" fill="#2D2D70"/>
<path d="M53.0408 9.80629H52.3365V9.75212C52.3365 9.58958 52.3365 9.42705 52.4449 9.21033L54.1244 7.20572L53.4201 6.66393L52.7699 7.42243H52.2823V7.20572C52.2823 7.04318 52.3365 6.88065 52.4449 6.77229L53.3659 5.58036L52.6616 5.03857L51.578 6.39304C51.3613 6.60976 51.3071 6.88065 51.3071 7.20572V8.23511H52.1198L51.578 8.83108C51.3613 9.10197 51.2529 9.42704 51.2529 9.86047V10.7273H53.9619V8.93944H52.9866V9.80629H53.0408Z" fill="#2D2D70"/>
</svg>
