<svg width="98" height="22" viewBox="0 0 98 22" fill="none" xmlns="http://www.w3.org/2000/svg">
<path fill-rule="evenodd" clip-rule="evenodd" d="M9.0036 13.8867C8.88828 13.9453 8.76025 13.9745 8.63091 13.9717C8.48307 13.9722 8.33791 13.9322 8.21114 13.8562C8.08437 13.7801 7.98081 13.6708 7.91166 13.5402L7.84628 13.4225L5.59047 8.46024C5.57771 8.40209 5.57771 8.34187 5.59047 8.28372C5.58869 8.23056 5.59774 8.17759 5.61707 8.12804C5.6364 8.07849 5.66561 8.03338 5.70291 7.99547C5.74022 7.95755 5.78485 7.92762 5.83409 7.90749C5.88332 7.88736 5.93614 7.87745 5.98933 7.87837C6.08349 7.8831 6.1743 7.91488 6.25087 7.9699L8.91206 9.87242C9.12074 10.0009 9.36013 10.0709 9.60515 10.0751C9.75101 10.0748 9.89539 10.0459 10.0302 9.99011L22.5057 4.38713C21.2346 2.9696 19.6719 1.84365 17.9249 1.08645C16.1778 0.329245 14.2877 -0.0412999 12.384 0.000209769C5.56432 0.000209769 0 4.64865 0 10.3955C0.0396666 11.9478 0.447426 13.4685 1.18972 14.8324C1.93202 16.1964 2.98763 17.3646 4.26968 18.2409C4.3737 18.316 4.45906 18.4141 4.51915 18.5274C4.57924 18.6408 4.61245 18.7665 4.61623 18.8947C4.6123 18.9847 4.59237 19.0732 4.55738 19.1562C4.36122 19.9342 4.01468 21.2026 4.01468 21.2614C3.98014 21.3649 3.96033 21.4728 3.95583 21.5818C3.95401 21.6355 3.96325 21.689 3.98298 21.739C4.0027 21.789 4.0325 21.8345 4.07051 21.8725C4.10853 21.9105 4.15395 21.9403 4.20396 21.96C4.25396 21.9797 4.30749 21.989 4.36122 21.9871C4.44027 21.9879 4.51692 21.9601 4.577 21.9087L7.27088 20.3265C7.46697 20.2021 7.69266 20.1321 7.92474 20.1238C8.0504 20.1289 8.17525 20.1464 8.29744 20.1761C9.60903 20.565 10.9702 20.761 12.3383 20.758C19.1645 20.758 24.7223 16.1096 24.7223 10.3628C24.7119 8.65702 24.225 6.98812 23.3165 5.54434L9.0886 13.8278L9.0036 13.8867Z" fill="#22AC38"/>
<path d="M63.823 7.36182H54.5317V8.19867H63.823V7.36182Z" fill="#494949"/>
<path d="M63.823 9.95728H54.5317V10.853H63.823V9.95728Z" fill="#494949"/>
<path d="M63.5614 17.7242V12.6443H54.7605V17.6981H63.5614V17.7242ZM55.6497 13.4811H62.6722V16.8612H55.6497V13.4811Z" fill="#494949"/>
<path fill-rule="evenodd" clip-rule="evenodd" d="M51.9816 18.2472V6.60975C52.5168 5.43774 52.9755 4.23223 53.3547 3.00084L52.5243 2.5105C51.7726 5.27133 50.5827 7.89367 49 10.2775L49.4839 11.1144C50.0004 10.3364 50.5496 9.41451 51.0923 8.45998V18.306H51.9816V18.2472Z" fill="#494949"/>
<path fill-rule="evenodd" clip-rule="evenodd" d="M85.7011 18.2472V6.60975C86.2335 5.43656 86.6921 4.23124 87.0742 3.00084L86.2438 2.5105C85.4921 5.27133 84.3022 7.89367 82.7195 10.2775L83.2033 11.1405C83.7199 10.3625 84.2626 9.44066 84.8118 8.48613V18.306H85.7011V18.2472Z" fill="#494949"/>
<path fill-rule="evenodd" clip-rule="evenodd" d="M64.7972 4.67476H59.3505L59.9259 4.32825C59.8671 4.18442 59.6971 3.80522 59.4944 3.40641C59.2917 3.0076 59.1478 2.6807 59.0628 2.47803L58.2324 2.96837C58.5201 3.51755 58.7751 4.04058 59.0105 4.53092C59.0354 4.57584 59.053 4.62437 59.0628 4.67476H53.6162V5.5443H64.7972V4.67476Z" fill="#494949"/>
<path fill-rule="evenodd" clip-rule="evenodd" d="M40.8269 3.98176H39.9965V6.93034H38.4207V2.74609H37.5903V6.93034H35.9556V3.98176H35.1252V7.76719H40.8269V3.98176Z" fill="#494949"/>
<path d="M40.4279 9.4082H35.3801V10.2451H40.4279V9.4082Z" fill="#494949"/>
<path fill-rule="evenodd" clip-rule="evenodd" d="M36.4721 13.5074V12.7621H39.0221V14.6058C39.0221 15.2596 38.9633 15.4753 38.7344 15.763L39.2314 16.6587V16.626C39.6956 16.2534 40.441 15.6192 41.5003 14.6646L41.1929 13.9716L39.8852 15.0373V11.8926H35.5829V13.1675C35.694 14.8935 35.2625 16.1357 34.2751 16.8614L34.7198 17.6525C35.3338 17.162 35.8157 16.526 36.1217 15.8022C36.4277 15.0784 36.5482 14.2896 36.4721 13.5074Z" fill="#494949"/>
<path fill-rule="evenodd" clip-rule="evenodd" d="M31.019 6.69477L31.5356 7.56431C32.8606 6.23298 33.9485 4.68524 34.7526 2.98779L34.0006 2.54321C33.257 4.09064 32.2479 5.49575 31.019 6.69477Z" fill="#494949"/>
<path fill-rule="evenodd" clip-rule="evenodd" d="M30.79 11.9774L31.2543 12.7881C31.7447 12.2128 32.2285 11.6047 32.6928 10.9706V18.2472H33.5232V9.58454C33.9468 8.85922 34.3246 8.10807 34.6543 7.3355V7.30281L33.8566 6.83862C33.1222 8.70762 32.0862 10.4436 30.79 11.9774Z" fill="#494949"/>
<path d="M46.9338 6.46592V5.62907H43.233C43.5952 4.63624 43.8644 3.61193 44.0373 2.56934H43.1546C42.7066 4.85344 41.8824 7.04732 40.7157 9.06146L41.2322 9.98984L41.6049 9.21183C41.7488 8.95032 41.8599 8.74764 41.9515 8.55804C42.1066 10.4189 42.5614 12.2425 43.2984 13.9583C42.5429 15.1919 41.5935 16.2957 40.4868 17.2273L40.9707 18.0641C42.038 17.1188 42.9552 16.0165 43.6907 14.7952C44.4144 15.9795 45.2723 17.0764 46.2473 18.0641V18.0968L46.7377 17.2273C45.7215 16.2715 44.8532 15.1698 44.1615 13.9583C45.103 12.2258 45.6784 9.68256 45.9073 6.394L46.9338 6.46592ZM43.8673 12.9646C43.227 11.098 42.8229 9.15858 42.6642 7.19162C42.7489 6.93315 42.8538 6.68175 42.978 6.43977H45.2142C45.1352 8.67495 44.6798 10.8808 43.8673 12.9646Z" fill="#494949"/>
<path d="M81.6536 5.57024V4.67455H74.5723V2.39282H73.6569V4.67455H66.6345V5.57024H73.6569V8.54498H69.0799V9.35568C69.6409 10.5469 70.3529 11.661 71.1984 12.6704C71.8291 13.4455 72.5294 14.1611 73.2908 14.8083C71.3407 16.02 69.184 16.8622 66.9288 17.2927L67.4453 18.2145C69.7662 17.6417 71.9759 16.6873 73.9839 15.3901C75.856 16.7429 77.9822 17.7035 80.2347 18.2145L80.6074 17.5215C79.7717 17.2858 78.9489 17.0065 78.1424 16.6846C76.8932 16.2012 75.7005 15.583 74.5854 14.841C76.5889 13.3562 78.1305 11.3342 79.0316 9.00917L78.2862 8.57113H74.5396V5.57024H81.6536ZM78.0705 9.32299C77.2137 11.2992 75.8121 12.9908 74.0296 14.2003C72.3333 12.9057 70.9593 11.2364 70.015 9.32299H78.0705Z" fill="#494949"/>
<path fill-rule="evenodd" clip-rule="evenodd" d="M93.0635 17.09H92.5534V17.9857H93.325C93.64 18.0165 93.958 17.9812 94.2586 17.8821C94.5592 17.7831 94.8358 17.6224 95.0708 17.4103C95.2707 17.1827 95.4201 16.9152 95.5092 16.6256C95.5982 16.336 95.6248 16.0308 95.5873 15.7301V7.33546H98.0001V6.43977H95.5873V2.56934H94.6981V6.43977H87.303V7.33546H94.6981V15.7301C94.6719 16.6585 94.0965 17.09 93.0635 17.09Z" fill="#494949"/>
<path fill-rule="evenodd" clip-rule="evenodd" d="M91.0627 14.0893L91.9454 13.5663C91.4615 12.5856 90.8273 11.2846 90.0557 9.70239L89.2515 10.1927C89.7702 11.2432 90.3739 12.542 91.0627 14.0893Z" fill="#494949"/>
</svg>
